<svg width="34" height="36" viewBox="0 0 34 36" fill="none" xmlns="http://www.w3.org/2000/svg">
<path fill-rule="evenodd" clip-rule="evenodd" d="M23.2579 8.61746C23.2579 3.85817 19.3997 0 14.6404 0C9.88111 0 6.02294 3.85817 6.02294 8.61746C6.02294 13.3768 9.88111 17.2349 14.6404 17.2349C19.3997 17.2349 23.2579 13.3768 23.2579 8.61746ZM3.93425 21.8815C10.8574 19.409 18.4229 19.409 25.3461 21.8815C25.762 22.0301 26.1493 22.2294 26.5021 22.471C22.7019 22.6323 19.6706 25.7642 19.6706 29.6041C19.6706 31.4844 20.3974 33.1949 21.5855 34.47H5.56914C2.81376 34.47 0.580078 32.2363 0.580078 29.4809V26.6411C0.580078 24.5052 1.92278 22.5999 3.93425 21.8815ZM27.8351 23.8134C28.3865 24.6301 28.7002 25.6087 28.7002 26.6411V29.4809C28.7002 32.2363 26.4665 34.47 23.7112 34.47H23.5087C21.9526 33.4122 20.9305 31.6275 20.9305 29.6041C20.9305 26.3568 23.5629 23.7244 26.8102 23.7244C27.1598 23.7244 27.5023 23.7549 27.8351 23.8134Z" fill="#454545"/>
<rect x="20.6602" y="23.2515" width="12.7488" height="12.7488" rx="6.3744" fill="#454545"/>
<rect x="26.5791" y="26.4385" width="0.910629" height="6.3744" rx="0.455315" fill="white"/>
<rect x="23.8477" y="30.0811" width="0.910629" height="6.3744" rx="0.455315" transform="rotate(-90 23.8477 30.0811)" fill="white"/>
</svg>
