<svg width="34" height="36" viewBox="0 0 34 36" fill="none" xmlns="http://www.w3.org/2000/svg">
<path d="M9.96797 9.16388C10.5422 7.61204 12.7371 7.61204 13.3113 9.16388L15.3671 14.7195C15.5476 15.2074 15.9323 15.592 16.4202 15.7726L21.9758 17.8283C23.5276 18.4026 23.5276 20.5974 21.9758 21.1717L16.4202 23.2274C15.9323 23.408 15.5476 23.7926 15.3671 24.2805L13.3113 29.8361C12.7371 31.388 10.5422 31.388 9.96797 29.8361L7.91222 24.2805C7.73168 23.7926 7.34701 23.408 6.85912 23.2274L1.30352 21.1717C-0.24831 20.5974 -0.24831 18.4026 1.30352 17.8283L6.85912 15.7726C7.34701 15.592 7.73168 15.2074 7.91222 14.7195L9.96797 9.16388Z" fill="#454545"/>
<path d="M24.4553 0.728245C24.8146 -0.242748 26.188 -0.242749 26.5473 0.728244L27.8336 4.20441C27.9465 4.50969 28.1872 4.75038 28.4925 4.86334L31.9687 6.14964C32.9397 6.50894 32.9397 7.8823 31.9687 8.2416L28.4925 9.5279C28.1872 9.64086 27.9465 9.88155 27.8336 10.1868L26.5473 13.663C26.188 14.634 24.8146 14.634 24.4553 13.663L23.169 10.1868C23.056 9.88155 22.8154 9.64086 22.5101 9.5279L19.0339 8.2416C18.0629 7.8823 18.0629 6.50894 19.0339 6.14964L22.5101 4.86335C22.8154 4.75038 23.056 4.50969 23.169 4.20441L24.4553 0.728245Z" fill="#454545"/>
<path d="M25.6174 22.3371C25.9767 21.3661 27.3501 21.3661 27.7094 22.3371L28.9957 25.8133C29.1086 26.1186 29.3493 26.3593 29.6546 26.4722L33.1308 27.7585C34.1018 28.1178 34.1018 29.4912 33.1308 29.8505L29.6546 31.1368C29.3493 31.2497 29.1086 31.4904 28.9957 31.7957L27.7094 35.2719C27.3501 36.2429 25.9767 36.2429 25.6174 35.2719L24.3311 31.7957C24.2182 31.4904 23.9775 31.2497 23.6722 31.1368L20.196 29.8505C19.225 29.4912 19.225 28.1178 20.196 27.7585L23.6722 26.4722C23.9775 26.3593 24.2182 26.1186 24.3311 25.8133L25.6174 22.3371Z" fill="#454545"/>
</svg>
