<svg width="33" height="36" viewBox="0 0 33 36" fill="none" xmlns="http://www.w3.org/2000/svg">
<g clip-path="url(#clip0_1647_28374)">
<path fill-rule="evenodd" clip-rule="evenodd" d="M27.6679 4.47239C25.935 2.73955 23.1255 2.73955 21.3927 4.47239L5.35617 20.5089C2.46811 23.397 2.46811 28.0794 5.35617 30.9675C8.24424 33.8556 12.9267 33.8556 15.8148 30.9675L29.0623 17.7199C29.6399 17.1423 30.5764 17.1423 31.1541 17.7199C31.7317 18.2976 31.7317 19.2341 31.1541 19.8117L17.9065 33.0592C13.8632 37.1025 7.30774 37.1025 3.26445 33.0592C-0.778834 29.0159 -0.778834 22.4605 3.26445 18.4172L19.301 2.38067C22.189 -0.507395 26.8715 -0.507395 29.7596 2.38067C32.6476 5.26873 32.6476 9.95121 29.7596 12.8393L13.5238 29.075C11.791 30.8078 8.98152 30.8078 7.24868 29.075C5.51585 27.3422 5.51585 24.5327 7.24868 22.7998L20.6955 9.35307C21.2731 8.77546 22.2096 8.77546 22.7872 9.35307C23.3648 9.93068 23.3648 10.8672 22.7872 11.4448L9.3404 24.8916C8.76279 25.4692 8.76279 26.4057 9.3404 26.9833C9.91802 27.5609 10.8545 27.5609 11.4321 26.9833L27.6679 10.7475C29.4007 9.01471 29.4007 6.20523 27.6679 4.47239Z" fill="#BFBFBF"/>
</g>
<defs>
<clipPath id="clip0_1647_28374">
<rect width="32.2105" height="36" fill="white"/>
</clipPath>
</defs>
</svg>
