<svg width="22" height="38" viewBox="0 0 22 38" fill="none" xmlns="http://www.w3.org/2000/svg">
<path d="M17.5997 1.12257C17.9521 0.770245 18.408 0.562988 18.9469 0.562988C20.0246 0.562988 20.8329 1.37128 20.8329 2.449C20.8329 2.96714 20.6257 3.44382 20.294 3.79615L5.20596 18.5526L20.294 33.3091C20.6257 33.6614 20.8329 34.1588 20.8329 34.6563C20.8329 35.734 20.0246 36.563 18.9469 36.563C18.408 36.563 17.9521 36.3557 17.5997 36.0034L1.18524 19.9412C0.791456 19.6096 0.563477 19.0915 0.563477 18.5526C0.563477 18.0345 0.77073 17.5578 1.16451 17.164L17.5997 1.12257Z" fill="#454545"/>
<path fill-rule="evenodd" clip-rule="evenodd" d="M1.16408 17.164C0.770294 17.5578 0.56304 18.0344 0.56304 18.5526C0.56304 19.0914 0.791019 19.6096 1.1848 19.9412L17.5993 36.0034C17.9516 36.3557 18.4076 36.5629 18.9465 36.5629C20.0242 36.5629 20.8325 35.7339 20.8325 34.6562C20.8325 34.1588 20.6252 33.6614 20.2936 33.3091L5.20553 18.5526L20.2936 3.7961C20.6252 3.44377 20.8325 2.96709 20.8325 2.44895C20.8325 1.37123 20.0242 0.562939 18.9465 0.562939C18.4076 0.562939 17.9516 0.770195 17.5993 1.12252L1.16408 17.164ZM17.2038 0.721779C17.6559 0.270897 18.2521 -9.91821e-05 18.9465 -9.91821e-05C20.3351 -9.91821e-05 21.3955 1.06027 21.3955 2.44895C21.3955 3.11909 21.1275 3.73163 20.7036 4.18199L20.6956 4.19048L6.01078 18.5526L20.6956 32.9147L20.7036 32.9232C21.1297 33.3759 21.3955 34.0099 21.3955 34.6562C21.3955 36.0367 20.3432 37.126 18.9465 37.126C18.2519 37.126 17.6556 36.8548 17.2034 36.4037L0.804908 20.3572C0.284919 19.91 0 19.2363 0 18.5526C0 17.8722 0.276069 17.2557 0.765947 16.7658L17.2012 0.724396C17.2021 0.723522 17.2029 0.722649 17.2038 0.721779Z" fill="#454545"/>
</svg>
