<svg width="34" height="36" viewBox="0 0 34 36" fill="none" xmlns="http://www.w3.org/2000/svg">
<path fill-rule="evenodd" clip-rule="evenodd" d="M0.0831428 11.143C0.713091 6.30647 4.84897 2.57143 9.85721 2.57143H23.5715C28.5797 2.57143 32.7156 6.30647 33.3456 11.143H0.0831428ZM6.97545e-05 13.7144V26.1429C6.97545e-05 31.5868 4.41326 36 9.85721 36H23.5715C29.0154 36 33.4286 31.5868 33.4286 26.1429V13.7144H6.97545e-05ZM7.28575 20.5714C6.57567 20.5714 6.00003 19.9958 6.00003 19.2857C6.00003 18.5756 6.57567 18 7.28575 18H9.00004C9.71012 18 10.2857 18.5756 10.2857 19.2857C10.2857 19.9958 9.71012 20.5714 9.00004 20.5714H7.28575ZM14.5715 19.2857C14.5715 19.9958 15.1471 20.5714 15.8572 20.5714H17.5715C18.2815 20.5714 18.8572 19.9958 18.8572 19.2857C18.8572 18.5756 18.2815 18 17.5715 18H15.8572C15.1471 18 14.5715 18.5756 14.5715 19.2857ZM24.4286 20.5714C23.7185 20.5714 23.1429 19.9958 23.1429 19.2857C23.1429 18.5756 23.7185 18 24.4286 18H26.1429C26.853 18 27.4286 18.5756 27.4286 19.2857C27.4286 19.9958 26.853 20.5714 26.1429 20.5714H24.4286ZM5.99993 26.1429C5.99993 26.853 6.57556 27.4286 7.28564 27.4286H8.99993C9.71001 27.4286 10.2856 26.853 10.2856 26.1429C10.2856 25.4328 9.71001 24.8572 8.99993 24.8572H7.28564C6.57556 24.8572 5.99993 25.4328 5.99993 26.1429ZM15.8571 27.4286C15.147 27.4286 14.5714 26.853 14.5714 26.1429C14.5714 25.4328 15.147 24.8572 15.8571 24.8572H17.5714C18.2814 24.8572 18.8571 25.4328 18.8571 26.1429C18.8571 26.853 18.2814 27.4286 17.5714 27.4286H15.8571ZM23.1428 26.1429C23.1428 26.853 23.7184 27.4286 24.4285 27.4286H26.1428C26.8529 27.4286 27.4285 26.853 27.4285 26.1429C27.4285 25.4328 26.8529 24.8572 26.1428 24.8572H24.4285C23.7184 24.8572 23.1428 25.4328 23.1428 26.1429ZM24.4286 3.74666e-08C23.7186 6.42804e-09 23.1429 0.575634 23.1429 1.28571V6.42857C23.1429 7.13865 23.7186 7.71429 24.4286 7.71429C25.1387 7.71429 25.7144 7.13865 25.7144 6.42857V1.28571C25.7144 0.575634 25.1387 6.85052e-08 24.4286 3.74666e-08ZM9.00007 3.74666e-08C8.28999 6.42804e-09 7.71436 0.575634 7.71436 1.28571L7.71436 6.42857C7.71436 7.13865 8.28999 7.71429 9.00007 7.71429C9.71015 7.71429 10.2858 7.13865 10.2858 6.42857V1.28571C10.2858 0.575634 9.71015 6.85052e-08 9.00007 3.74666e-08Z" fill="#BFBFBF"/>
</svg>
