<svg width="36" height="32" viewBox="0 0 36 32" fill="none" xmlns="http://www.w3.org/2000/svg">
<path fill-rule="evenodd" clip-rule="evenodd" d="M7.12161 6.3C3.18846 6.3 0 9.48846 0 13.4216V22.5C0 27.4706 4.02944 31.5 9 31.5H27C31.9706 31.5 36 27.4706 36 22.5V13.4216C36 9.48846 32.8115 6.3 28.8784 6.3C27.7388 6.3 26.709 5.62089 26.2601 4.57349L25.7026 3.27284C24.8517 1.28734 22.8994 0 20.7393 0H18H15.2607C13.1006 0 11.1483 1.28734 10.2974 3.27284L9.73993 4.57349C9.29105 5.62089 8.26115 6.3 7.12161 6.3ZM22.05 17.1C22.05 14.8632 20.2368 13.05 18 13.05C15.7632 13.05 13.95 14.8632 13.95 17.1C13.95 19.3368 15.7632 21.15 18 21.15C20.2368 21.15 22.05 19.3368 22.05 17.1ZM18 10.35C21.7279 10.35 24.75 13.3721 24.75 17.1C24.75 20.8279 21.7279 23.85 18 23.85C14.2721 23.85 11.25 20.8279 11.25 17.1C11.25 13.3721 14.2721 10.35 18 10.35Z" fill="#454545"/>
</svg>
