<svg width="36" height="30" viewBox="0 0 36 30" fill="none" xmlns="http://www.w3.org/2000/svg">
<path fill-rule="evenodd" clip-rule="evenodd" d="M1.53864 23.0991C1.35726 23.2805 1.05335 23.2433 0.937923 23.0142C0.476595 22.0987 0.216797 21.0642 0.216797 19.969V9.70946C0.216797 5.96698 3.25068 2.93311 6.99316 2.93311H18.9626C19.5647 2.93311 20.1484 3.01162 20.7041 3.15897C20.9827 3.23285 21.0601 3.57765 20.8563 3.78147L1.53864 23.0991ZM2.44008 24.9879C2.43997 24.9878 2.43996 24.9876 2.44007 24.9875L23.0915 4.3361C23.0916 4.336 23.0917 4.33599 23.0918 4.33607C23.092 4.33617 23.092 4.33635 23.0919 4.33647L2.44043 24.9879C2.44034 24.988 2.44018 24.988 2.44008 24.9879ZM7.9635 26.0719C7.71496 26.3204 7.89099 26.7454 8.24248 26.7454H18.9626C22.7051 26.7454 25.739 23.7115 25.739 19.969V19.4734C25.739 19.1562 26.0944 18.9687 26.3563 19.1477L31.5512 22.7008C33.4385 23.9915 36 22.6401 36 20.3537V9.35367C36 7.0589 33.4219 5.70933 31.5361 7.01697L26.3584 10.6074C26.0967 10.7889 25.739 10.6016 25.739 10.2832V9.70947C25.739 9.52288 25.7315 9.33806 25.7167 9.15528C25.6911 8.83996 25.3143 8.72104 25.0906 8.94474L7.9635 26.0719Z" fill="#454545"/>
<path d="M0.954684 28.381C1.48184 28.9081 2.26475 28.9799 2.70338 28.5413L27.8824 3.36224C28.321 2.92362 28.2492 2.1407 27.7221 1.61355C27.1949 1.08639 26.412 1.01463 25.9734 1.45325L0.794388 26.6323C0.355764 27.0709 0.427531 27.8538 0.954684 28.381Z" fill="#454545"/>
</svg>
