<svg width="36" height="36" viewBox="0 0 36 36" fill="none" xmlns="http://www.w3.org/2000/svg">
<path fill-rule="evenodd" clip-rule="evenodd" d="M0 18C0 8.05888 8.05888 0 18 0C27.9411 0 36 8.05888 36 18C36 27.9411 27.9411 36 18 36C14.8404 36 11.8675 35.1848 9.28383 33.7524C9.12575 33.6648 8.97192 33.661 8.86226 33.6997L4.63839 35.1923C2.05042 36.1068 -0.442502 33.6139 0.471978 31.0259L2.02631 26.6271C2.06361 26.5216 2.06189 26.3743 1.98258 26.22C0.714931 23.7545 0 20.9589 0 18ZM9.7112 20.1766C10.8671 20.1766 11.8042 19.2395 11.8042 18.0836C11.8042 16.9276 10.8671 15.9906 9.7112 15.9906C8.55525 15.9906 7.61818 16.9276 7.61818 18.0836C7.61818 19.2395 8.55525 20.1766 9.7112 20.1766ZM20.1766 18.0834C20.1766 19.2394 19.2395 20.1765 18.0836 20.1765C16.9277 20.1765 15.9906 19.2394 15.9906 18.0834C15.9906 16.9275 16.9277 15.9904 18.0836 15.9904C19.2395 15.9904 20.1766 16.9275 20.1766 18.0834ZM26.456 20.1765C27.6119 20.1765 28.549 19.2394 28.549 18.0834C28.549 16.9275 27.6119 15.9904 26.456 15.9904C25.3001 15.9904 24.363 16.9275 24.363 18.0834C24.363 19.2394 25.3001 20.1765 26.456 20.1765Z" fill="#454545"/>
</svg>
