<svg width="34" height="34" viewBox="0 0 34 34" fill="none" xmlns="http://www.w3.org/2000/svg">
<path fill-rule="evenodd" clip-rule="evenodd" d="M0.716697 33.2831C-0.231409 32.335 -0.231409 30.7978 0.716697 29.8497L29.8499 0.716497C30.798 -0.231609 32.3352 -0.231609 33.2833 0.716497C34.2314 1.6646 34.2314 3.20179 33.2833 4.14989L4.15009 33.2831C3.20199 34.2312 1.6648 34.2312 0.716697 33.2831Z" fill="#454545"/>
<path fill-rule="evenodd" clip-rule="evenodd" d="M33.2833 33.2831C34.2314 32.335 34.2314 30.7978 33.2833 29.8497L4.15009 0.716497C3.20199 -0.231606 1.6648 -0.231609 0.716697 0.716497C-0.231409 1.6646 -0.231406 3.20179 0.716697 4.14989L29.8499 33.2831C30.798 34.2312 32.3352 34.2312 33.2833 33.2831Z" fill="#454545"/>
</svg>
