<svg width="36" height="36" viewBox="0 0 36 36" fill="none" xmlns="http://www.w3.org/2000/svg">
<path fill-rule="evenodd" clip-rule="evenodd" d="M1.38906 23.5989L0.0258217 33.0698C-0.0837173 33.8676 0.187729 34.6705 0.758884 35.2381C1.33004 35.8057 2.1346 36.0722 2.93167 35.9577L12.4026 34.5945C13.6864 34.4175 14.877 33.8253 15.7927 32.9084L33.2637 15.4195C35.5952 13.1677 36.5302 9.83307 35.7094 6.69736C34.8887 3.56165 32.4398 1.1128 29.3041 0.292032C26.1684 -0.528739 22.8338 0.406298 20.582 2.73776L3.07516 20.2087C2.1582 21.1245 1.56605 22.3151 1.38906 23.5989ZM20.3847 17.5181C19.8595 18.0427 19.0086 18.0427 18.4833 17.5181C17.9588 16.9929 17.9588 16.142 18.4833 15.6168L26.035 8.06515C26.565 7.57123 27.391 7.5858 27.9033 8.09812C28.4157 8.61043 28.4302 9.43644 27.9363 9.96651L20.3847 17.5181Z" fill="#454545"/>
</svg>
