<svg width="30" height="36" viewBox="0 0 30 36" fill="none" xmlns="http://www.w3.org/2000/svg">
<path fill-rule="evenodd" clip-rule="evenodd" d="M18.7682 0.0106151C18.6645 0.00356298 18.5602 0 18.4555 0H8.3031C3.91051 0 0.349609 3.5609 0.349609 7.95349V28.0465C0.349609 32.4391 3.91051 36 8.3031 36H21.6984C26.091 36 29.6519 32.4391 29.6519 28.0465V12.5581H23.3729C20.8298 12.5581 18.7682 10.4966 18.7682 7.95349V0.0106151ZM7.04728 18C7.04728 17.3064 7.60953 16.7442 8.3031 16.7442H21.6984C22.392 16.7442 22.9543 17.3064 22.9543 18C22.9543 18.6936 22.392 19.2558 21.6984 19.2558H8.3031C7.60953 19.2558 7.04728 18.6936 7.04728 18ZM8.3031 25.1163C7.60953 25.1163 7.04728 25.6785 7.04728 26.3721C7.04728 27.0657 7.60953 27.6279 8.3031 27.6279H15.0008C15.6943 27.6279 16.2566 27.0657 16.2566 26.3721C16.2566 25.6785 15.6943 25.1163 15.0008 25.1163H8.3031Z" fill="#454545"/>
<path d="M28.9345 10.0465C28.8288 9.88006 28.7121 9.71983 28.5847 9.56695L21.9929 1.65683C21.7787 1.39983 21.5393 1.16936 21.2798 0.967849V7.95349C21.2798 9.10943 22.2169 10.0465 23.3729 10.0465H28.9345Z" fill="#454545"/>
</svg>
