<svg width="36" height="32" viewBox="0 0 36 32" fill="none" xmlns="http://www.w3.org/2000/svg">
<path fill-rule="evenodd" clip-rule="evenodd" d="M30.3457 7.78271C30.6909 7.18754 30.8886 6.49613 30.8886 5.75856C30.8886 5.04086 30.7015 4.36687 30.3733 3.78271H33.6201C34.7247 3.78271 35.6201 4.67815 35.6201 5.78271C35.6201 6.88728 34.7247 7.78271 33.6201 7.78271H30.3457ZM23.3508 7.78271H2.37988C1.27531 7.78271 0.379883 6.88728 0.379883 5.78271C0.379883 4.67815 1.27531 3.78271 2.37988 3.78271H23.3232C22.9951 4.36687 22.808 5.04086 22.808 5.75856C22.808 6.49613 23.0056 7.18754 23.3508 7.78271ZM2.37988 14.0518C1.27531 14.0518 0.379883 14.9473 0.379883 16.0518C0.379883 17.1564 1.27531 18.0518 2.37988 18.0518H7.59279C7.16471 17.4106 6.91515 16.6401 6.91515 15.8113C6.91515 15.1806 7.05965 14.5837 7.31735 14.0518H2.37988ZM33.6201 18.0518H14.3181C14.7462 17.4106 14.9958 16.6401 14.9958 15.8113C14.9958 15.1806 14.8513 14.5837 14.5936 14.0518H33.6201C34.7247 14.0518 35.6201 14.9473 35.6201 16.0518C35.6201 17.1564 34.7247 18.0518 33.6201 18.0518ZM2.37988 23.9121C1.27531 23.9121 0.379883 24.8075 0.379883 25.9121C0.379883 27.0167 1.27531 27.9121 2.37988 27.9121H20.307C19.9788 27.3279 19.7917 26.6539 19.7917 25.9361C19.7917 25.1986 19.9893 24.5072 20.3344 23.9121H2.37988ZM27.3295 23.9121C27.6747 24.5072 27.8723 25.1986 27.8723 25.9361C27.8723 26.6539 27.6851 27.3279 27.3569 27.9121H33.6201C34.7247 27.9121 35.6201 27.0167 35.6201 25.9121C35.6201 24.8075 34.7247 23.9121 33.6201 23.9121H27.3295Z" fill="#454545"/>
<circle cx="23.6638" cy="26.4211" r="3.2533" stroke="#454545" stroke-width="2.91675"/>
<circle cx="11.3359" cy="15.9497" r="3.45238" stroke="#454545" stroke-width="3.09524"/>
<circle cx="26.4717" cy="5.47803" r="3.45238" stroke="#454545" stroke-width="3.09524"/>
</svg>
