<svg width="22" height="38" viewBox="0 0 22 38" fill="none" xmlns="http://www.w3.org/2000/svg">
<path d="M2.88574 37.2812C1.64885 37.2811 0.718995 36.3225 0.71875 35.0938C0.71875 34.5219 0.955134 33.9553 1.33398 33.5527L1.3418 33.5449L16.2256 18.9902L1.3418 4.43457L1.33398 4.42676V4.42578C0.956337 4.02445 0.71875 3.4798 0.71875 2.88574C0.718887 1.6528 1.65282 0.718937 2.88574 0.71875C3.50305 0.71875 4.03023 0.957964 4.43262 1.36035V1.36133L20.8652 17.3994L20.8672 17.4023C21.3089 17.8441 21.5507 18.3902 21.5508 18.9893C21.5508 19.5971 21.2969 20.1895 20.8447 20.5791L4.43262 36.6396C4.03022 37.042 3.50305 37.2812 2.88574 37.2812Z" fill="#454545" stroke="#454545" stroke-width="0.56304"/>
</svg>
