<svg width="36" height="24" viewBox="0 0 36 24" fill="none" xmlns="http://www.w3.org/2000/svg">
<path d="M12.8408 6.25294C12.8408 8.92618 15.0079 11.0933 17.6811 11.0933C20.3544 11.0933 22.5215 8.92618 22.5215 6.25294C22.5215 3.57969 20.3544 1.4126 17.6811 1.4126C15.0079 1.4126 12.8408 3.57969 12.8408 6.25294Z" fill="#454545"/>
<path fill-rule="evenodd" clip-rule="evenodd" d="M17.6818 2.3205C19.8538 2.3205 21.6146 4.08126 21.6146 6.25327C21.6146 8.42528 19.8538 10.186 17.6818 10.186C15.5098 10.186 13.749 8.42528 13.749 6.25327C13.749 4.08126 15.5098 2.3205 17.6818 2.3205ZM23.4297 6.25327C23.4297 3.07879 20.8563 0.505371 17.6818 0.505371C14.5073 0.505371 11.9339 3.07879 11.9339 6.25327C11.9339 9.42775 14.5073 12.0012 17.6818 12.0012C20.8563 12.0012 23.4297 9.42775 23.4297 6.25327Z" fill="#454545"/>
<path d="M9.21094 18.275C9.21094 17.2339 9.86542 16.3052 10.8459 15.955C15.2663 14.3763 20.0968 14.3763 24.5172 15.955C25.4976 16.3052 26.1521 17.2339 26.1521 18.275V20.1692C26.1521 21.5058 25.0686 22.5894 23.732 22.5894H17.6815H11.6311C10.2945 22.5894 9.21094 21.5058 9.21094 20.1692V18.275Z" fill="#454545"/>
<path fill-rule="evenodd" clip-rule="evenodd" d="M24.2123 16.8096C19.9893 15.3014 15.3744 15.3014 11.1515 16.8096C10.5322 17.0307 10.1188 17.6173 10.1188 18.2749V20.169C10.1188 21.0044 10.7961 21.6816 11.6314 21.6816H23.7323C24.5677 21.6816 25.2449 21.0044 25.2449 20.169V18.2749C25.2449 17.6173 24.8315 17.0307 24.2123 16.8096ZM10.541 15.1002C15.1587 13.451 20.205 13.451 24.8228 15.1002C26.1644 15.5793 27.06 16.8502 27.06 18.2749V20.169C27.06 22.0069 25.5701 23.4968 23.7323 23.4968H11.6314C9.79359 23.4968 8.30371 22.0069 8.30371 20.169V18.2749C8.30371 16.8502 9.1993 15.5793 10.541 15.1002Z" fill="#454545"/>
<path fill-rule="evenodd" clip-rule="evenodd" d="M23.5889 1.36945C24.6864 2.69544 25.3459 4.39711 25.3459 6.25283C25.3459 8.10852 24.6864 9.81017 23.5889 11.1362C24.4693 11.6841 25.5087 12.0007 26.6221 12.0007C29.7966 12.0007 32.37 9.42726 32.37 6.25278C32.37 3.07831 29.7966 0.504883 26.6221 0.504883C25.5087 0.504883 24.4693 0.821434 23.5889 1.36945ZM26.6028 13.8627C28.0614 14.8259 28.9759 16.4718 28.9759 18.2746V20.1688C28.9759 21.4321 28.5292 22.591 27.7852 23.4962H32.6728C34.5106 23.4962 36.0005 22.0063 36.0005 20.1685V18.2743C36.0005 16.8496 35.1049 15.5788 33.7632 15.0996C31.4481 14.2728 29.0253 13.8605 26.6028 13.8627Z" fill="#454545"/>
<path fill-rule="evenodd" clip-rule="evenodd" d="M11.9839 1.12815C10.7619 2.48593 10.0182 4.28278 10.0182 6.25334C10.0182 8.22353 10.7616 10.0201 11.9833 11.3778C11.2012 11.7761 10.3159 12.0007 9.37807 12.0007C6.2036 12.0007 3.63017 9.42726 3.63017 6.25278C3.63017 3.07831 6.2036 0.504883 9.37807 0.504883C10.3162 0.504883 11.2017 0.729606 11.9839 1.12815ZM8.74712 13.8723C6.54222 13.9378 4.3451 14.347 2.23725 15.0998C0.895593 15.579 0 16.8498 0 18.2745V20.1687C0 22.0065 1.48988 23.4964 3.32773 23.4964H7.57817C6.83428 22.5912 6.3877 21.4324 6.3877 20.1693V18.2751C6.3877 16.4779 7.29647 14.8367 8.74712 13.8723Z" fill="#454545"/>
</svg>
