<svg width="36" height="28" viewBox="0 0 36 28" fill="none" xmlns="http://www.w3.org/2000/svg">
<path fill-rule="evenodd" clip-rule="evenodd" d="M36 3.2C36 4.69117 34.7275 5.9 33.1579 5.9L2.84211 5.9C1.27245 5.9 0 4.69117 0 3.2C0 1.70883 1.27245 0.5 2.84211 0.5L33.1579 0.5C34.7275 0.5 36 1.70883 36 3.2Z" fill="#454545"/>
<path fill-rule="evenodd" clip-rule="evenodd" d="M36 13.9998C36 15.491 34.7275 16.6998 33.1579 16.6998H2.84211C1.27245 16.6998 0 15.491 0 13.9998C0 12.5086 1.27245 11.2998 2.84211 11.2998L33.1579 11.2998C34.7275 11.2998 36 12.5086 36 13.9998Z" fill="#454545"/>
<path fill-rule="evenodd" clip-rule="evenodd" d="M36 24.8001C36 26.2913 34.7275 27.5001 33.1579 27.5001H2.84211C1.27245 27.5001 0 26.2913 0 24.8001C0 23.3089 1.27245 22.1001 2.84211 22.1001L33.1579 22.1001C34.7275 22.1001 36 23.3089 36 24.8001Z" fill="#454545"/>
</svg>
