<svg width="36" height="32" viewBox="0 0 36 32" fill="none" xmlns="http://www.w3.org/2000/svg">
<path fill-rule="evenodd" clip-rule="evenodd" d="M8.66773 26.6008C5.23485 24.7754 2.40186 21.9746 0.540073 18.5701C-0.180036 17.2534 -0.180024 15.6616 0.540106 14.3448C3.91103 8.18107 10.4655 3.99609 17.9999 3.99609C21.798 3.99609 25.347 5.05953 28.3647 6.90379L23.2838 11.9847C22.0139 10.486 20.1179 9.53465 17.9996 9.53465C14.1761 9.53465 11.0765 12.6342 11.0765 16.4577C11.0765 18.576 12.0279 20.472 13.5266 21.7419L8.66773 26.6008ZM11.3894 27.7954C13.4575 28.5232 15.6824 28.9192 18.0001 28.9192C25.5345 28.9192 32.089 24.7342 35.4599 18.5704C36.18 17.2537 36.18 15.6619 35.4599 14.3451C34.2396 12.1136 32.6019 10.1414 30.6515 8.53326L24.6517 14.5331C24.8281 15.1441 24.9227 15.7899 24.9227 16.4577C24.9227 20.2812 21.8231 23.3808 17.9996 23.3808C17.3318 23.3808 16.686 23.2862 16.075 23.1098L11.3894 27.7954ZM17.9996 16.4577L15.0725 19.405C14.3149 18.6525 13.8458 17.6099 13.8458 16.4577C13.8458 14.1636 15.7055 12.3039 17.9996 12.3039C18.9457 12.3039 19.8179 12.6202 20.5162 13.1528L17.9996 16.4577Z" fill="#454545"/>
<path d="M31.3847 2.14998L3.69238 29.8423" stroke="#454545" stroke-width="2.76923" stroke-linecap="round" stroke-linejoin="round"/>
</svg>
