<svg width="37" height="37" viewBox="0 0 37 37" fill="none" xmlns="http://www.w3.org/2000/svg">
<path d="M8.7998 0.799805C4.3818 0.799805 0.799805 4.38181 0.799805 8.79982V28.7999C0.799805 33.2179 4.3818 36.7999 8.7998 36.7999H28.7998C33.2178 36.7999 36.7998 33.2179 36.7998 28.7999V8.79982C36.7998 4.38181 33.2178 0.799805 28.7998 0.799805H8.7998ZM26.7998 6.79981C29.0098 6.79981 30.7998 8.58982 30.7998 10.7998C30.7998 13.0098 29.0098 14.7998 26.7998 14.7998C24.5898 14.7998 22.7998 13.0098 22.7998 10.7998C22.7998 8.58982 24.5898 6.79981 26.7998 6.79981ZM11.7998 16.7998C12.9638 16.8018 14.7318 18.6138 16.4238 21.7378C17.0958 22.9738 17.6978 24.3358 18.2378 25.6758C18.5618 26.4758 18.8118 27.0879 18.9238 27.4239C19.4698 29.0579 21.6858 29.2899 22.5498 27.7999C22.6358 27.6518 22.7918 27.3678 23.0498 26.9878C23.4818 26.3478 23.9738 25.6999 24.4878 25.1119C25.7718 23.6399 27.0118 22.7998 27.7998 22.7998C28.5978 22.8198 29.8298 23.6579 31.1118 25.1119C31.6318 25.7019 32.1118 26.3478 32.5498 26.9878C32.6878 27.1878 32.7078 27.2819 32.7998 27.4239V28.7999C32.7998 31.0099 31.0098 32.7999 28.7998 32.7999H8.7998C6.5898 32.7999 4.7998 31.0099 4.7998 28.7999V27.1119C4.9258 26.7559 5.09382 26.3338 5.36182 25.6758C5.90782 24.3358 6.49978 22.9758 7.17578 21.7378C8.88178 18.6078 10.6378 16.7978 11.7998 16.7998Z" fill="#BFBFBF"/>
</svg>
