<svg width="36" height="24" viewBox="0 0 36 24" fill="none" xmlns="http://www.w3.org/2000/svg">
<path fill-rule="evenodd" clip-rule="evenodd" d="M4.48443 0.600098C2.00775 0.600098 0 2.60785 0 5.08453V18.9115C0 21.3882 2.00775 23.3959 4.48443 23.3959H31.5156C33.9923 23.3959 36 21.3882 36 18.9115V5.08453C36 2.60784 33.9923 0.600098 31.5156 0.600098H4.48443ZM6.41502 5.60926C5.62386 5.60926 4.9825 6.25063 4.9825 7.04179C4.9825 7.83295 5.62386 8.47432 6.41502 8.47432H8.09668C8.88785 8.47432 9.52921 7.83295 9.52921 7.04179C9.52921 6.25063 8.88785 5.60926 8.09668 5.60926H6.41502ZM12.1451 7.04179C12.1451 6.25063 12.7865 5.60926 13.5777 5.60926H15.2593C16.0505 5.60926 16.6918 6.25063 16.6918 7.04179C16.6918 7.83295 16.0505 8.47432 15.2593 8.47432H13.5777C12.7865 8.47432 12.1451 7.83295 12.1451 7.04179ZM20.7403 5.60926C19.9491 5.60926 19.3078 6.25063 19.3078 7.04179C19.3078 7.83295 19.9491 8.47432 20.7403 8.47432H22.4219C23.2131 8.47432 23.8545 7.83295 23.8545 7.04179C23.8545 6.25063 23.2131 5.60926 22.4219 5.60926H20.7403ZM26.4704 7.04179C26.4704 6.25063 27.1118 5.60926 27.9029 5.60926H29.5846C30.3757 5.60926 31.0171 6.25063 31.0171 7.04179C31.0171 7.83295 30.3757 8.47432 29.5846 8.47432H27.9029C27.1118 8.47432 26.4704 7.83295 26.4704 7.04179ZM6.41502 10.9657C5.62386 10.9657 4.9825 11.607 4.9825 12.3982C4.9825 13.1894 5.62386 13.8307 6.41502 13.8307H8.09668C8.88785 13.8307 9.52921 13.1894 9.52921 12.3982C9.52921 11.607 8.88785 10.9657 8.09668 10.9657H6.41502ZM12.1451 12.3982C12.1451 11.607 12.7865 10.9657 13.5777 10.9657H15.2593C16.0505 10.9657 16.6918 11.607 16.6918 12.3982C16.6918 13.1894 16.0505 13.8307 15.2593 13.8307H13.5777C12.7865 13.8307 12.1451 13.1894 12.1451 12.3982ZM20.7403 10.9657C19.9491 10.9657 19.3078 11.607 19.3078 12.3982C19.3078 13.1894 19.9491 13.8307 20.7403 13.8307H22.4219C23.2131 13.8307 23.8545 13.1894 23.8545 12.3982C23.8545 11.607 23.2131 10.9657 22.4219 10.9657H20.7403ZM26.4704 12.3982C26.4704 11.607 27.1118 10.9657 27.9029 10.9657H29.5846C30.3757 10.9657 31.0171 11.607 31.0171 12.3982C31.0171 13.1894 30.3757 13.8307 29.5846 13.8307H27.9029C27.1118 13.8307 26.4704 13.1894 26.4704 12.3982ZM12.2697 16.3221C11.4785 16.3221 10.8372 16.9634 10.8372 17.7546C10.8372 18.5458 11.4785 19.1871 12.2697 19.1871H23.7299C24.5211 19.1871 25.1624 18.5458 25.1624 17.7546C25.1624 16.9634 24.5211 16.3221 23.7299 16.3221H12.2697Z" fill="#454545"/>
</svg>
