<svg width="62" height="66" viewBox="0 0 62 66" fill="none" xmlns="http://www.w3.org/2000/svg">
<g filter="url(#filter0_i_2254_4686)">
<path d="M61.6609 28.7431C61.6609 43.9964 43.5414 60.8632 31.6732 65.1682C31.3624 65.2809 31.0546 65.0144 31.0664 64.6841C31.2548 59.4045 24.9584 57.9461 19.6456 55.1611C12.0064 51.1566 0.34668 44.2862 0.34668 28.7431C0.34668 13.2 14.0723 0.599854 31.0038 0.599854C47.9352 0.599854 61.6609 13.2 61.6609 28.7431Z" fill="url(#paint0_radial_2254_4686)" fill-opacity="0.8"/>
<path d="M61.6609 28.7431C61.6609 43.9964 43.5414 60.8632 31.6732 65.1682C31.3624 65.2809 31.0546 65.0144 31.0664 64.6841C31.2548 59.4045 24.9584 57.9461 19.6456 55.1611C12.0064 51.1566 0.34668 44.2862 0.34668 28.7431C0.34668 13.2 14.0723 0.599854 31.0038 0.599854C47.9352 0.599854 61.6609 13.2 61.6609 28.7431Z" fill="url(#paint1_radial_2254_4686)" fill-opacity="0.8"/>
<path d="M61.6609 28.7431C61.6609 43.9964 43.5414 60.8632 31.6732 65.1682C31.3624 65.2809 31.0546 65.0144 31.0664 64.6841C31.2548 59.4045 24.9584 57.9461 19.6456 55.1611C12.0064 51.1566 0.34668 44.2862 0.34668 28.7431C0.34668 13.2 14.0723 0.599854 31.0038 0.599854C47.9352 0.599854 61.6609 13.2 61.6609 28.7431Z" fill="url(#paint2_radial_2254_4686)" fill-opacity="0.8"/>
<path d="M61.6609 28.7431C61.6609 43.9964 43.5414 60.8632 31.6732 65.1682C31.3624 65.2809 31.0546 65.0144 31.0664 64.6841C31.2548 59.4045 24.9584 57.9461 19.6456 55.1611C12.0064 51.1566 0.34668 44.2862 0.34668 28.7431C0.34668 13.2 14.0723 0.599854 31.0038 0.599854C47.9352 0.599854 61.6609 13.2 61.6609 28.7431Z" fill="url(#paint3_radial_2254_4686)" fill-opacity="0.8"/>
<path d="M61.6609 28.7431C61.6609 43.9964 43.5414 60.8632 31.6732 65.1682C31.3624 65.2809 31.0546 65.0144 31.0664 64.6841C31.2548 59.4045 24.9584 57.9461 19.6456 55.1611C12.0064 51.1566 0.34668 44.2862 0.34668 28.7431C0.34668 13.2 14.0723 0.599854 31.0038 0.599854C47.9352 0.599854 61.6609 13.2 61.6609 28.7431Z" fill="url(#paint4_radial_2254_4686)" fill-opacity="0.8"/>
<path d="M61.6609 28.7431C61.6609 43.9964 43.5414 60.8632 31.6732 65.1682C31.3624 65.2809 31.0546 65.0144 31.0664 64.6841C31.2548 59.4045 24.9584 57.9461 19.6456 55.1611C12.0064 51.1566 0.34668 44.2862 0.34668 28.7431C0.34668 13.2 14.0723 0.599854 31.0038 0.599854C47.9352 0.599854 61.6609 13.2 61.6609 28.7431Z" fill="url(#paint5_radial_2254_4686)" fill-opacity="0.8"/>
</g>
<path fill-rule="evenodd" clip-rule="evenodd" d="M0.533203 25.6228C3.32572 26.1952 5.85002 26.4645 8.00545 26.6944L8.45566 26.7425C10.8846 27.0032 12.6648 27.2273 14.0493 27.7249C15.3164 28.1803 16.1473 28.8294 16.7349 29.9711C17.379 31.2224 17.8155 33.2323 17.8155 36.5754C17.8155 40.5619 19.3072 43.7159 21.6565 45.8642C23.9735 47.983 27.0179 49.0284 30.0116 49.0516C33.0058 49.0749 36.0633 48.076 38.3932 45.9575C40.7556 43.8094 42.2382 40.6282 42.2382 36.5754C42.2382 34.1126 42.2374 32.1065 42.2362 30.4341C42.3698 30.4528 42.5047 30.4713 42.6411 30.4898C47.815 31.1905 54.9147 31.4509 61.573 30.6093C61.6312 29.985 61.6612 29.3624 61.6612 28.7425C61.6612 28.0361 61.6328 27.3358 61.5771 26.6425C55.1786 27.5117 48.197 27.2736 43.1689 26.5927C42.8481 26.5492 42.536 26.5052 42.2321 26.4606L42.2298 24.8524C42.2251 21.6855 42.2229 20.1882 42.2382 15.9433C42.2479 13.2825 40.8022 11.284 38.8862 10.0512C37.0154 8.84758 34.6357 8.30986 32.3472 8.37922C30.055 8.4487 27.6463 9.13416 25.7645 10.6262C23.8241 12.1648 22.555 14.4829 22.555 17.4834C22.555 20.1068 23.7684 22.2331 25.2308 23.8033C26.6846 25.3642 28.48 26.4873 29.9568 27.1811C31.813 28.0531 34.2101 28.9775 38.303 29.7812C38.3045 31.5791 38.3056 33.7839 38.3056 36.5754C38.3056 39.6089 37.2269 41.7026 35.7475 43.0478C34.2355 44.4226 32.1705 45.1356 30.0422 45.1191C27.9134 45.1025 25.8352 44.3564 24.3104 42.962C22.8178 41.597 21.7482 39.5159 21.7482 36.5754C21.7482 32.9915 21.2978 30.2428 20.2316 28.1713C19.109 25.9902 17.4061 24.7523 15.3794 24.024C13.4702 23.3378 11.1967 23.0814 8.87531 22.8323L8.45145 22.7869C6.27144 22.5541 3.90547 22.3014 1.29659 21.7648C0.948011 23.0192 0.691229 24.3073 0.533203 25.6228ZM31.6289 23.6216C33.0614 24.2945 34.9704 25.0611 38.2985 25.7667L38.2971 24.8692C38.2924 21.6908 38.2902 20.1819 38.3056 15.9291C38.3094 14.8812 37.793 14.0242 36.7583 13.3585C35.6784 12.6637 34.1187 12.26 32.4663 12.3101C30.8174 12.3601 29.2835 12.8549 28.2079 13.7078C27.1908 14.5142 26.4877 15.7057 26.4877 17.4834C26.4877 18.8189 27.0936 20.0332 28.1086 21.123C29.1323 22.2221 30.4727 23.0785 31.6289 23.6216Z" fill="white"/>
<defs>
<filter id="filter0_i_2254_4686" x="-2.63457" y="0.599854" width="64.2957" height="64.5946" filterUnits="userSpaceOnUse" color-interpolation-filters="sRGB">
<feFlood flood-opacity="0" result="BackgroundImageFix"/>
<feBlend mode="normal" in="SourceGraphic" in2="BackgroundImageFix" result="shape"/>
<feColorMatrix in="SourceAlpha" type="matrix" values="0 0 0 0 0 0 0 0 0 0 0 0 0 0 0 0 0 0 127 0" result="hardAlpha"/>
<feOffset dx="-2.98125"/>
<feGaussianBlur stdDeviation="3.8299"/>
<feComposite in2="hardAlpha" operator="arithmetic" k2="-1" k3="1"/>
<feColorMatrix type="matrix" values="0 0 0 0 0.980392 0 0 0 0 0.541176 0 0 0 0 0.588235 0 0 0 1 0"/>
<feBlend mode="normal" in2="shape" result="effect1_innerShadow_2254_4686"/>
</filter>
<radialGradient id="paint0_radial_2254_4686" cx="0" cy="0" r="1" gradientTransform="matrix(-8.05399 78.887 -124.81 -10.4061 16.9743 -13.4872)" gradientUnits="userSpaceOnUse">
<stop stop-color="#FDD6DA"/>
<stop offset="1" stop-color="#F97583"/>
</radialGradient>
<radialGradient id="paint1_radial_2254_4686" cx="0" cy="0" r="1" gradientTransform="matrix(14.2893 28.6435 -82.6232 33.6606 16.7145 4.35628)" gradientUnits="userSpaceOnUse">
<stop stop-color="#FDD6DA"/>
<stop offset="1" stop-color="#F97583"/>
</radialGradient>
<radialGradient id="paint2_radial_2254_4686" cx="0" cy="0" r="1" gradientTransform="matrix(-48.0198 36.055 -57.0453 -62.0448 96.6904 46.0144)" gradientUnits="userSpaceOnUse">
<stop stop-color="#FF596B"/>
<stop offset="1" stop-color="#F97583" stop-opacity="0"/>
</radialGradient>
<radialGradient id="paint3_radial_2254_4686" cx="0" cy="0" r="1" gradientTransform="matrix(-8.05399 78.887 -124.81 -10.4061 16.9743 -13.4872)" gradientUnits="userSpaceOnUse">
<stop stop-color="#FDD6DA"/>
<stop offset="1" stop-color="#F97583"/>
</radialGradient>
<radialGradient id="paint4_radial_2254_4686" cx="0" cy="0" r="1" gradientTransform="matrix(14.2893 28.6435 -82.6232 33.6606 16.7145 4.35628)" gradientUnits="userSpaceOnUse">
<stop stop-color="#FDD6DA"/>
<stop offset="1" stop-color="#F97583"/>
</radialGradient>
<radialGradient id="paint5_radial_2254_4686" cx="0" cy="0" r="1" gradientTransform="matrix(-48.0198 36.055 -57.0453 -62.0448 96.6904 46.0144)" gradientUnits="userSpaceOnUse">
<stop stop-color="#FF596B"/>
<stop offset="1" stop-color="#F97583" stop-opacity="0"/>
</radialGradient>
</defs>
</svg>
