<svg width="62" height="66" viewBox="0 0 62 66" fill="none" xmlns="http://www.w3.org/2000/svg">
<g filter="url(#filter0_i_2254_4686)">
<path d="M61.6609 28.7431C61.6609 43.9964 43.5414 60.8632 31.6732 65.1682C31.3624 65.2809 31.0546 65.0144 31.0664 64.6841C31.2548 59.4045 24.9584 57.9461 19.6456 55.1611C12.0064 51.1566 0.34668 44.2862 0.34668 28.7431C0.34668 13.2 14.0723 0.599854 31.0038 0.599854C47.9352 0.599854 61.6609 13.2 61.6609 28.7431Z" fill="url(#paint0_radial_2254_4686)" fill-opacity="0.8"/>
<path d="M61.6609 28.7431C61.6609 43.9964 43.5414 60.8632 31.6732 65.1682C31.3624 65.2809 31.0546 65.0144 31.0664 64.6841C31.2548 59.4045 24.9584 57.9461 19.6456 55.1611C12.0064 51.1566 0.34668 44.2862 0.34668 28.7431C0.34668 13.2 14.0723 0.599854 31.0038 0.599854C47.9352 0.599854 61.6609 13.2 61.6609 28.7431Z" fill="url(#paint1_radial_2254_4686)" fill-opacity="0.8"/>
<path d="M61.6609 28.7431C61.6609 43.9964 43.5414 60.8632 31.6732 65.1682C31.3624 65.2809 31.0546 65.0144 31.0664 64.6841C31.2548 59.4045 24.9584 57.9461 19.6456 55.1611C12.0064 51.1566 0.34668 44.2862 0.34668 28.7431C0.34668 13.2 14.0723 0.599854 31.0038 0.599854C47.9352 0.599854 61.6609 13.2 61.6609 28.7431Z" fill="url(#paint2_radial_2254_4686)" fill-opacity="0.8"/>
<path d="M61.6609 28.7431C61.6609 43.9964 43.5414 60.8632 31.6732 65.1682C31.3624 65.2809 31.0546 65.0144 31.0664 64.6841C31.2548 59.4045 24.9584 57.9461 19.6456 55.1611C12.0064 51.1566 0.34668 44.2862 0.34668 28.7431C0.34668 13.2 14.0723 0.599854 31.0038 0.599854C47.9352 0.599854 61.6609 13.2 61.6609 28.7431Z" fill="url(#paint3_radial_2254_4686)" fill-opacity="0.8"/>
<path d="M61.6609 28.7431C61.6609 43.9964 43.5414 60.8632 31.6732 65.1682C31.3624 65.2809 31.0546 65.0144 31.0664 64.6841C31.2548 59.4045 24.9584 57.9461 19.6456 55.1611C12.0064 51.1566 0.34668 44.2862 0.34668 28.7431C0.34668 13.2 14.0723 0.599854 31.0038 0.599854C47.9352 0.599854 61.6609 13.2 61.6609 28.7431Z" fill="url(#paint4_radial_2254_4686)" fill-opacity="0.8"/>
<path d="M61.6609 28.7431C61.6609 43.9964 43.5414 60.8632 31.6732 65.1682C31.3624 65.2809 31.0546 65.0144 31.0664 64.6841C31.2548 59.4045 24.9584 57.9461 19.6456 55.1611C12.0064 51.1566 0.34668 44.2862 0.34668 28.7431C0.34668 13.2 14.0723 0.599854 31.0038 0.599854C47.9352 0.599854 61.6609 13.2 61.6609 28.7431Z" fill="url(#paint5_radial_2254_4686)" fill-opacity="0.8"/>
</g>
<defs>
<filter id="filter0_i_2254_4686" x="-2.63457" y="0.599854" width="64.2957" height="64.5946" filterUnits="userSpaceOnUse" color-interpolation-filters="sRGB">
<feFlood flood-opacity="0" result="BackgroundImageFix"/>
<feBlend mode="normal" in="SourceGraphic" in2="BackgroundImageFix" result="shape"/>
<feColorMatrix in="SourceAlpha" type="matrix" values="0 0 0 0 0 0 0 0 0 0 0 0 0 0 0 0 0 0 127 0" result="hardAlpha"/>
<feOffset dx="-2.98125"/>
<feGaussianBlur stdDeviation="3.8299"/>
<feComposite in2="hardAlpha" operator="arithmetic" k2="-1" k3="1"/>
<feColorMatrix type="matrix" values="0 0 0 0 0.980392 0 0 0 0 0.541176 0 0 0 0 0.588235 0 0 0 1 0"/>
<feBlend mode="normal" in2="shape" result="effect1_innerShadow_2254_4686"/>
</filter>
<radialGradient id="paint0_radial_2254_4686" cx="0" cy="0" r="1" gradientTransform="matrix(-8.05399 78.887 -124.81 -10.4061 16.9743 -13.4872)" gradientUnits="userSpaceOnUse">
<stop stop-color="#FDD6DA"/>
<stop offset="1" stop-color="#F97583"/>
</radialGradient>
<radialGradient id="paint1_radial_2254_4686" cx="0" cy="0" r="1" gradientTransform="matrix(14.2893 28.6435 -82.6232 33.6606 16.7145 4.35628)" gradientUnits="userSpaceOnUse">
<stop stop-color="#FDD6DA"/>
<stop offset="1" stop-color="#F97583"/>
</radialGradient>
<radialGradient id="paint2_radial_2254_4686" cx="0" cy="0" r="1" gradientTransform="matrix(-48.0198 36.055 -57.0453 -62.0448 96.6904 46.0144)" gradientUnits="userSpaceOnUse">
<stop stop-color="#FF596B"/>
<stop offset="1" stop-color="#F97583" stop-opacity="0"/>
</radialGradient>
<radialGradient id="paint3_radial_2254_4686" cx="0" cy="0" r="1" gradientTransform="matrix(-8.05399 78.887 -124.81 -10.4061 16.9743 -13.4872)" gradientUnits="userSpaceOnUse">
<stop stop-color="#FDD6DA"/>
<stop offset="1" stop-color="#F97583"/>
</radialGradient>
<radialGradient id="paint4_radial_2254_4686" cx="0" cy="0" r="1" gradientTransform="matrix(14.2893 28.6435 -82.6232 33.6606 16.7145 4.35628)" gradientUnits="userSpaceOnUse">
<stop stop-color="#FDD6DA"/>
<stop offset="1" stop-color="#F97583"/>
</radialGradient>
<radialGradient id="paint5_radial_2254_4686" cx="0" cy="0" r="1" gradientTransform="matrix(-48.0198 36.055 -57.0453 -62.0448 96.6904 46.0144)" gradientUnits="userSpaceOnUse">
<stop stop-color="#FF596B"/>
<stop offset="1" stop-color="#F97583" stop-opacity="0"/>
</radialGradient>
</defs>
</svg>