<svg width="30" height="36" viewBox="0 0 30 36" fill="none" xmlns="http://www.w3.org/2000/svg">
<path d="M8.35645 7.88893C8.35645 4.21992 11.3308 1.24561 14.9998 1.24561C18.6688 1.24561 21.6431 4.21993 21.6431 7.88894V16.1931C21.6431 19.8621 18.6688 22.8364 14.9998 22.8364C11.3308 22.8364 8.35645 19.8621 8.35645 16.1931V7.88893Z" fill="#BFBFBF"/>
<path fill-rule="evenodd" clip-rule="evenodd" d="M7.11035 7.88895C7.11035 3.532 10.6424 0 14.9993 0C19.3563 0 22.8883 3.53201 22.8883 7.88895V16.1931C22.8883 20.5501 19.3563 24.0821 14.9993 24.0821C10.6424 24.0821 7.11035 20.5501 7.11035 16.1931V7.88895ZM14.9993 2.49125C12.0182 2.49125 9.6016 4.90788 9.6016 7.88895V16.1931C9.6016 19.1742 12.0182 21.5908 14.9993 21.5908C17.9804 21.5908 20.397 19.1742 20.397 16.1931V7.88895C20.397 4.90788 17.9804 2.49125 14.9993 2.49125Z" fill="#BFBFBF"/>
<path fill-rule="evenodd" clip-rule="evenodd" d="M1.71261 15.4854C2.56192 15.4854 3.25042 16.1739 3.25042 17.0232C3.25042 23.5119 8.51056 28.772 14.9993 28.772C21.488 28.772 26.7481 23.5119 26.7481 17.0232C26.7481 16.1739 27.4366 15.4854 28.2859 15.4854C29.1352 15.4854 29.8237 16.1739 29.8237 17.0232C29.8237 25.2105 23.1866 31.8476 14.9993 31.8476C6.81194 31.8476 0.174805 25.2105 0.174805 17.0232C0.174805 16.1739 0.863305 15.4854 1.71261 15.4854Z" fill="#BFBFBF"/>
<path fill-rule="evenodd" clip-rule="evenodd" d="M14.9997 29.6025C15.849 29.6025 16.5375 30.291 16.5375 31.1403V34.462C16.5375 35.3113 15.849 35.9998 14.9997 35.9998C14.1504 35.9998 13.4619 35.3113 13.4619 34.462V31.1403C13.4619 30.291 14.1504 29.6025 14.9997 29.6025Z" fill="#BFBFBF"/>
</svg>
