<svg width="30" height="36" viewBox="0 0 30 36" fill="none" xmlns="http://www.w3.org/2000/svg">
<path d="M8.04297 8.66625V16.0767C8.04297 18.7169 9.29095 21.0347 11.1698 22.3472L21.4383 12.1396V8.66626C21.4383 4.57361 18.4397 1.25586 14.7406 1.25586C11.0416 1.25586 8.04297 4.57361 8.04297 8.66625Z" fill="#454545"/>
<path fill-rule="evenodd" clip-rule="evenodd" d="M6.78711 8.66621C6.78711 4.00248 10.2315 0 14.7406 0C19.2496 0 22.6941 4.00249 22.6941 8.66621V12.6619L11.3109 23.9776L10.4506 23.3766C8.22105 21.8191 6.78711 19.1092 6.78711 16.0766V8.66621ZM14.7406 2.51163C11.8516 2.51163 9.29874 5.14464 9.29874 8.66621V16.0766C9.29874 17.9122 10.0069 19.5329 11.0988 20.647L20.1825 11.6172V8.66621C20.1825 5.14464 17.6296 2.51163 14.7406 2.51163ZM21.3829 17.6761C22.0342 17.9144 22.3691 18.6356 22.1308 19.287C21.3176 21.5097 19.6702 23.3133 17.5564 24.1844C16.9151 24.4486 16.1811 24.143 15.9168 23.5017C15.6526 22.8604 15.9582 22.1264 16.5995 21.8622C18.0063 21.2825 19.1793 20.0442 19.7721 18.424C20.0104 17.7727 20.7316 17.4378 21.3829 17.6761Z" fill="#454545"/>
<path fill-rule="evenodd" clip-rule="evenodd" d="M1.34566 15.9062C2.03922 15.9062 2.60147 16.4685 2.60147 17.1621C2.60147 21.054 4.43159 24.5179 7.28328 26.7415C7.83022 27.168 7.92788 27.9571 7.5014 28.504C7.07492 29.051 6.28581 29.1486 5.73886 28.7222C2.30309 26.0431 0.0898438 21.8607 0.0898438 17.1621C0.0898438 16.4685 0.652091 15.9062 1.34566 15.9062ZM28.1364 15.9062C28.8299 15.9062 29.3922 16.4685 29.3922 17.1621C29.3922 25.2537 22.8326 31.8132 14.741 31.8132C12.9461 31.8132 11.2238 31.4899 9.63117 30.8972C8.98116 30.6552 8.65033 29.9322 8.89224 29.2822C9.13415 28.6322 9.8572 28.3013 10.5072 28.5433C11.8238 29.0332 13.2496 29.3016 14.741 29.3016C21.4455 29.3016 26.8805 23.8665 26.8805 17.1621C26.8805 16.4685 27.4428 15.9062 28.1364 15.9062Z" fill="#454545"/>
<path fill-rule="evenodd" clip-rule="evenodd" d="M14.7412 30.1387C15.4347 30.1387 15.997 30.7009 15.997 31.3945V34.7433C15.997 35.4369 15.4347 35.9991 14.7412 35.9991C14.0476 35.9991 13.4854 35.4369 13.4854 34.7433V31.3945C13.4854 30.7009 14.0476 30.1387 14.7412 30.1387Z" fill="#454545"/>
<path fill-rule="evenodd" clip-rule="evenodd" d="M2.13251 32.2839C2.62294 32.7743 3.41808 32.7743 3.9085 32.2839L29.0248 7.1676C29.5152 6.67718 29.5152 5.88204 29.0248 5.39161C28.5344 4.90119 27.7392 4.90119 27.2488 5.39161L2.13251 30.5079C1.64209 30.9983 1.64209 31.7935 2.13251 32.2839Z" fill="#454545"/>
</svg>
