<svg width="30" height="36" viewBox="0 0 30 36" fill="none" xmlns="http://www.w3.org/2000/svg">
<path fill-rule="evenodd" clip-rule="evenodd" d="M3.55169 11.4479C3.55169 5.12541 8.6771 0 14.9996 0C21.3221 0 26.4475 5.12541 26.4475 11.4479V14.9517C26.4475 15.6006 26.656 16.2634 27.0269 17.0065C27.295 17.5435 27.6026 18.0417 27.938 18.5851L27.938 18.5852L27.9385 18.5859C28.0876 18.8275 28.2422 19.0779 28.4013 19.3447C29.0101 20.3656 29.3596 21.5594 29.3596 22.8309C29.3596 26.1122 27.0085 28.9714 23.7002 29.4301C21.05 29.7976 17.6799 30.1763 14.9996 30.1763C12.3193 30.1763 8.94924 29.7976 6.29902 29.4301C2.99072 28.9714 0.639648 26.1122 0.639648 22.8309C0.639648 21.5594 0.989101 20.3656 1.59794 19.3447C1.75722 19.0776 1.91199 18.8269 2.06124 18.5851L2.06126 18.5851C2.39668 18.0417 2.70422 17.5435 2.97229 17.0064C3.34319 16.2634 3.55169 15.6005 3.55169 14.9517V11.4479ZM17.5938 32.0966C17.9779 31.5191 18.7574 31.3622 19.3349 31.7462C19.9125 32.1302 20.0694 32.9097 19.6854 33.4872C18.6799 34.9994 16.9569 36.0004 14.9996 36.0004C13.0422 36.0004 11.3192 34.9994 10.3138 33.4872C9.92976 32.9097 10.0867 32.1302 10.6642 31.7462C11.2418 31.3622 12.0213 31.5191 12.4053 32.0966C12.965 32.9384 13.9183 33.4888 14.9996 33.4888C16.0809 33.4888 17.0342 32.9384 17.5938 32.0966Z" fill="#454545"/>
</svg>
