<svg width="36" height="35" viewBox="0 0 36 35" fill="none" xmlns="http://www.w3.org/2000/svg">
<path d="M32.1241 32.6241C28.2155 36.3271 18.2056 32.8477 9.76654 24.8528C1.32745 16.8578 -2.34522 7.37484 1.56341 3.67191L4.13694 1.23382C5.9136 -0.449326 8.84109 -0.404834 10.6757 1.3332L14.6619 5.10958C16.4964 6.84761 16.5434 9.62102 14.7667 11.3042L14.214 11.8278C13.2547 12.7366 13.1609 14.2026 14.0522 15.2259C14.9119 16.2129 15.8388 17.196 16.8438 18.148C17.8487 19.1001 18.8864 19.9782 19.9283 20.7927C21.0084 21.6371 22.5558 21.5481 23.5151 20.6394L24.0678 20.1157C25.8445 18.4326 28.772 18.4771 30.6066 20.2151L34.5927 23.9915C36.4273 25.7295 36.4743 28.5029 34.6976 30.1861L32.1241 32.6241Z" fill="#454545"/>
</svg>
