<svg width="31" height="36" viewBox="0 0 31 36" fill="none" xmlns="http://www.w3.org/2000/svg">
<path fill-rule="evenodd" clip-rule="evenodd" d="M30.84 15.42C30.84 18.997 29.6221 22.2895 27.5783 24.9054C25.1616 28.3426 22.5318 31.3043 18.4676 34.8948C16.7261 36.4333 14.1004 36.3393 12.3804 34.7767L12.2433 34.6522C8.3267 31.0943 5.50759 28.5334 2.00452 23.13L2.04231 23.0943C0.743048 20.8343 0 18.2139 0 15.42C0 6.90377 6.90377 0 15.42 0C23.9362 0 30.84 6.90377 30.84 15.42ZM15.5742 20.9714C18.7252 20.9714 21.2796 18.417 21.2796 15.2659C21.2796 12.1149 18.7252 9.56055 15.5742 9.56055C12.4232 9.56055 9.86877 12.1149 9.86877 15.2659C9.86877 18.417 12.4232 20.9714 15.5742 20.9714Z" fill="#454545"/>
</svg>
