<svg width="40" height="40" viewBox="0 0 40 40" fill="none" xmlns="http://www.w3.org/2000/svg">
<path fill-rule="evenodd" clip-rule="evenodd" d="M28.7453 3.28922C27.9555 2.4994 26.6749 2.4994 25.8851 3.28922C25.0952 4.07905 25.0952 5.35961 25.8851 6.14943L28.0302 8.2946L22.6746 13.6503C18.7857 11.2986 13.6545 11.8016 10.2969 15.1591C9.8062 15.6499 9.85919 16.4376 10.3499 16.9284L22.8287 29.4072C23.3195 29.8979 24.1072 29.9509 24.598 29.4602C27.8521 26.206 28.4248 21.2859 26.316 17.4453L31.7485 12.0129L33.8937 14.158C34.6835 14.9478 35.964 14.9478 36.7539 14.158C37.5437 13.3682 37.5437 12.0876 36.7539 11.2978L28.7453 3.28922Z" fill="#BFBFBF"/>
<mask id="path-2-inside-1_1393_15919" fill="white">
<path fill-rule="evenodd" clip-rule="evenodd" d="M14.1609 23.8857C14.1356 23.9075 14.1108 23.9304 14.0867 23.9545L7.22223 30.819C6.70885 31.3323 6.70885 32.1647 7.22223 32.6781C7.73562 33.1915 8.56798 33.1915 9.08137 32.6781L15.9459 25.8136C15.9699 25.7895 15.9929 25.7648 16.0147 25.7394L14.1609 23.8857Z"/>
</mask>
<path fill-rule="evenodd" clip-rule="evenodd" d="M14.1609 23.8857C14.1356 23.9075 14.1108 23.9304 14.0867 23.9545L7.22223 30.819C6.70885 31.3323 6.70885 32.1647 7.22223 32.6781C7.73562 33.1915 8.56798 33.1915 9.08137 32.6781L15.9459 25.8136C15.9699 25.7895 15.9929 25.7648 16.0147 25.7394L14.1609 23.8857Z" fill="#BFBFBF"/>
<path d="M14.1609 23.8857L14.304 23.7427L14.1714 23.6101L14.0292 23.7322L14.1609 23.8857ZM16.0147 25.7394L16.1681 25.8711L16.2902 25.7289L16.1577 25.5964L16.0147 25.7394ZM14.2297 24.0975C14.2502 24.077 14.2712 24.0576 14.2927 24.0391L14.0292 23.7322C13.9999 23.7574 13.9714 23.7838 13.9437 23.8115L14.2297 24.0975ZM7.36524 30.962L14.2297 24.0975L13.9437 23.8115L7.07922 30.676L7.36524 30.962ZM7.36524 32.5351C6.93084 32.1007 6.93084 31.3964 7.36524 30.962L7.07922 30.676C6.48686 31.2683 6.48685 32.2287 7.07922 32.8211L7.36524 32.5351ZM8.93836 32.5351C8.50396 32.9695 7.79965 32.9695 7.36524 32.5351L7.07922 32.8211C7.67159 33.4135 8.63201 33.4135 9.22438 32.8211L8.93836 32.5351ZM15.8029 25.6706L8.93836 32.5351L9.22438 32.8211L16.0889 25.9566L15.8029 25.6706ZM15.8612 25.6076C15.8427 25.6291 15.8233 25.6502 15.8029 25.6706L16.0889 25.9566C16.1166 25.9289 16.143 25.9004 16.1681 25.8711L15.8612 25.6076ZM16.1577 25.5964L14.304 23.7427L14.0179 24.0287L15.8717 25.8824L16.1577 25.5964Z" fill="#BFBFBF" mask="url(#path-2-inside-1_1393_15919)"/>
</svg>
