<svg width="30" height="36" viewBox="0 0 30 36" fill="none" xmlns="http://www.w3.org/2000/svg">
<path d="M7.42023 8.99985C7.42023 13.1856 10.8134 16.5788 14.9992 16.5788C19.1849 16.5788 22.5781 13.1856 22.5781 8.99985C22.5781 4.81411 19.1849 1.4209 14.9992 1.4209C10.8134 1.4209 7.42023 4.81411 7.42023 8.99985Z" fill="#454545"/>
<path fill-rule="evenodd" clip-rule="evenodd" d="M15 2.84211C18.4009 2.84211 21.1579 5.59909 21.1579 9C21.1579 12.4009 18.4009 15.1579 15 15.1579C11.5991 15.1579 8.8421 12.4009 8.8421 9C8.8421 5.59909 11.5991 2.84211 15 2.84211ZM24 9C24 4.02944 19.9706 0 15 0C10.0294 0 6 4.02944 6 9C6 13.9706 10.0294 18 15 18C19.9706 18 24 13.9706 24 9Z" fill="#454545"/>
<path d="M1.73633 27.8235C1.73633 26.1933 2.76111 24.7391 4.29629 24.1909C11.2177 21.7189 18.7813 21.7189 25.7027 24.1909C27.2379 24.7391 28.2626 26.1933 28.2626 27.8235V30.7893C28.2626 32.8822 26.566 34.5788 24.4732 34.5788H14.9995H5.5258C3.43293 34.5788 1.73633 32.8822 1.73633 30.7893V27.8235Z" fill="#454545"/>
<path fill-rule="evenodd" clip-rule="evenodd" d="M25.2249 25.5293C18.6126 23.1677 11.3867 23.1677 4.7744 25.5293C3.80478 25.8756 3.15754 26.794 3.15754 27.8236V30.7895C3.15754 32.0975 4.21791 33.1579 5.52596 33.1579H24.4733C25.7814 33.1579 26.8417 32.0975 26.8417 30.7895V27.8236C26.8417 26.794 26.1945 25.8756 25.2249 25.5293ZM3.81849 22.8527C11.0489 20.2704 18.9503 20.2704 26.1808 22.8527C28.2815 23.603 29.6839 25.5929 29.6839 27.8236V30.7895C29.6839 33.6672 27.351 36 24.4733 36H5.52596C2.64826 36 0.31543 33.6672 0.31543 30.7895V27.8236C0.31543 25.5929 1.71774 23.603 3.81849 22.8527Z" fill="#454545"/>
</svg>
