<svg width="36" height="36" viewBox="0 0 36 36" fill="none" xmlns="http://www.w3.org/2000/svg">
<path fill-rule="evenodd" clip-rule="evenodd" d="M30.8338 34.5493L22.3787 25.6395C22.8205 25.2981 23.2493 24.9311 23.6631 24.5384C24.2319 23.9986 24.7538 23.428 25.2288 22.8316L33.7354 31.7957C34.4958 32.597 34.4627 33.863 33.6614 34.6234C32.8601 35.3837 31.5941 35.3506 30.8338 34.5493Z" fill="#454545"/>
<path fill-rule="evenodd" clip-rule="evenodd" d="M14.1276 28.2553C21.9301 28.2553 28.2553 21.9301 28.2553 14.1276C28.2553 6.32515 21.9301 0 14.1276 0C6.32515 0 0 6.32515 0 14.1276C0 21.9301 6.32515 28.2553 14.1276 28.2553ZM13.9878 24.4043C19.7415 24.4043 24.4057 19.7401 24.4057 13.9865C24.4057 8.23285 19.7415 3.56861 13.9878 3.56861C8.23422 3.56861 3.56998 8.23285 3.56998 13.9865C3.56998 19.7401 8.23422 24.4043 13.9878 24.4043Z" fill="#454545"/>
</svg>
