<svg width="36" height="36" viewBox="0 0 36 36" fill="none" xmlns="http://www.w3.org/2000/svg">
<path fill-rule="evenodd" clip-rule="evenodd" d="M18 36.0005C27.9411 36.0005 36 27.9416 36 18.0005C36 8.05936 27.9411 0.000488281 18 0.000488281C8.05887 0.000488281 0 8.05936 0 18.0005C0 27.9416 8.05887 36.0005 18 36.0005ZM11.3405 16.9205C12.8316 16.9205 14.0405 15.7116 14.0405 14.2205C14.0405 12.7293 12.8316 11.5205 11.3405 11.5205C9.84929 11.5205 8.64046 12.7293 8.64046 14.2205C8.64046 15.7116 9.84929 16.9205 11.3405 16.9205ZM27.5404 14.2204C27.5404 15.7116 26.3316 16.9204 24.8404 16.9204C23.3493 16.9204 22.1404 15.7116 22.1404 14.2204C22.1404 12.7293 23.3493 11.5204 24.8404 11.5204C26.3316 11.5204 27.5404 12.7293 27.5404 14.2204ZM10.5032 23.2267C10.2571 22.5898 10.7712 21.9599 11.454 21.9599H24.2915C24.9743 21.9599 25.4884 22.5898 25.2422 23.2267C24.1 26.1821 21.2311 28.2783 17.8727 28.2783C14.5143 28.2783 11.6455 26.1821 10.5032 23.2267Z" fill="#BFBFBF"/>
</svg>
