<svg width="29" height="36" viewBox="0 0 29 36" fill="none" xmlns="http://www.w3.org/2000/svg">
<path fill-rule="evenodd" clip-rule="evenodd" d="M0 36H28.8C28.7999 30.1827 24.084 25.4668 18.2667 25.4668H10.5333C4.71598 25.4668 7.06097e-05 30.1827 0 36Z" fill="url(#paint0_linear_1312_11220)"/>
<path fill-rule="evenodd" clip-rule="evenodd" d="M2.40039 36H28.8004C28.8003 30.1827 24.0844 25.4668 18.2671 25.4668H12.9337C7.11637 25.4668 2.40046 30.1827 2.40039 36Z" fill="#5A5B5D"/>
<rect x="11" y="30.7334" width="9.46667" height="6.8" rx="3.4" transform="rotate(-90 11 30.7334)" fill="#DEB2AE"/>
<path fill-rule="evenodd" clip-rule="evenodd" d="M14.4004 28.2001C19.776 28.2001 24.1337 22.6761 24.1337 17.2648C24.1337 16.8132 24.1034 16.3687 24.0446 15.9333H24.1337V11.8667H22.5245C20.7826 9.21549 17.7944 7.4668 14.4004 7.4668C11.0064 7.4668 8.01813 9.21549 6.27622 11.8667H4.66699V15.9333H4.75617C4.6974 16.3687 4.66705 16.8132 4.66705 17.2648C4.66705 22.6761 9.02481 28.2001 14.4004 28.2001Z" fill="url(#paint1_linear_1312_11220)"/>
<rect x="1.33301" y="14.2002" width="9.46667" height="5.46667" rx="2.73333" fill="#DEB2AE"/>
<rect x="18" y="14.2002" width="9.46667" height="5.46667" rx="2.73333" fill="#DEB2AE"/>
<path fill-rule="evenodd" clip-rule="evenodd" d="M24.1337 13.8667H4.66699C4.72238 15.3598 4.68185 16.2355 4.83366 17.7334C4.86492 18.4914 4.9024 18.8754 4.93366 19.6335C5.06548 19.7033 5.19683 19.7751 5.32956 19.8477C5.76741 20.087 6.22021 20.3346 6.75405 20.5447C7.59574 20.8761 8.43741 21.2075 9.27908 21.2001C10.0924 21.1928 10.9058 20.8692 11.7192 20.5456C12.0375 20.419 12.3558 20.2094 12.674 19.9998C13.1808 19.6661 13.6875 19.3323 14.1943 19.3335C14.6953 19.3347 15.1963 19.6669 15.6973 19.9991C16.014 20.2091 16.3308 20.4191 16.6475 20.5455C17.4681 20.873 18.2888 21.2004 19.1095 21.2001C19.9287 21.1997 21.5478 20.8726 22.367 20.5455C22.6085 20.4491 22.7764 20.3881 22.9093 20.3399C23.2273 20.2245 23.3451 20.1817 23.7917 19.8996C23.8208 19.7004 23.8455 19.513 23.8664 19.3334H23.867L23.8674 19.3248C23.9727 18.4183 23.9841 17.7074 23.997 16.6682L24.1337 13.8667Z" fill="url(#paint2_linear_1312_11220)"/>
<path d="M8.10059 15.7539L10.8693 16.516V16.8614C10.8693 17.6259 10.2495 18.2457 9.48492 18.2457L-nan -nanL9.48492 18.2457C8.72037 18.2457 8.10059 17.6259 8.10059 16.8614V15.7539Z" fill="white"/>
<path d="M20.7676 15.7539L17.9989 16.516V16.8614C17.9989 17.6259 18.6187 18.2457 19.3832 18.2457L-nan -nanL19.3832 18.2457C20.1478 18.2457 20.7676 17.6259 20.7676 16.8614V15.7539Z" fill="white"/>
<path fill-rule="evenodd" clip-rule="evenodd" d="M4.66699 9.33333C4.90798 4.1378 9.16875 0 14.3896 0C19.6104 0 23.8712 4.1378 24.1122 9.33333H4.66699Z" fill="url(#paint3_linear_1312_11220)"/>
<rect x="3.59961" y="8.2666" width="21.6" height="3.6" rx="1" fill="url(#paint4_linear_1312_11220)"/>
<defs>
<linearGradient id="paint0_linear_1312_11220" x1="13.9562" y1="20.7695" x2="14.367" y2="34.5777" gradientUnits="userSpaceOnUse">
<stop stop-color="#181818"/>
<stop offset="1" stop-color="#454545"/>
</linearGradient>
<linearGradient id="paint1_linear_1312_11220" x1="14.4003" y1="8.10013" x2="14.1003" y2="28.6335" gradientUnits="userSpaceOnUse">
<stop stop-color="#E4B3A2"/>
<stop offset="1" stop-color="#FBE2D9"/>
</linearGradient>
<linearGradient id="paint2_linear_1312_11220" x1="14.1003" y1="10.5964" x2="14.395" y2="20.2093" gradientUnits="userSpaceOnUse">
<stop stop-color="#181818"/>
<stop offset="1" stop-color="#454545"/>
</linearGradient>
<linearGradient id="paint3_linear_1312_11220" x1="14.0899" y1="-4.16216" x2="14.5674" y2="8.06513" gradientUnits="userSpaceOnUse">
<stop stop-color="#181818"/>
<stop offset="1" stop-color="#454545"/>
</linearGradient>
<linearGradient id="paint4_linear_1312_11220" x1="14.0667" y1="6.6612" x2="14.1308" y2="11.3838" gradientUnits="userSpaceOnUse">
<stop stop-color="#181818"/>
<stop offset="1" stop-color="#454545"/>
</linearGradient>
</defs>
</svg>
