<svg width="36" height="33" viewBox="0 0 36 33" fill="none" xmlns="http://www.w3.org/2000/svg">
<rect y="2.9751" width="36" height="29.7521" rx="9.22314" fill="url(#paint0_linear_1197_8081)"/>
<g filter="url(#filter0_d_1197_8081)">
<rect x="3.86816" width="28.8595" height="26.7769" rx="5.05785" fill="#FAFAFA"/>
</g>
<path fill-rule="evenodd" clip-rule="evenodd" d="M36 10.7104C31.3956 13.1044 25.0309 14.5855 18 14.5855C10.9691 14.5855 4.60437 13.1044 0 10.7104V23.5038C0 28.5976 4.12934 32.727 9.22314 32.727H26.7769C31.8707 32.727 36 28.5976 36 23.5038V10.7104Z" fill="url(#paint1_linear_1197_8081)"/>
<rect x="7.43848" y="4.76025" width="12.7934" height="2.67769" rx="1.33884" fill="url(#paint2_linear_1197_8081)"/>
<rect x="7.43848" y="8.92529" width="15.7686" height="2.67769" rx="1.33884" fill="url(#paint3_linear_1197_8081)"/>
<g filter="url(#filter1_d_1197_8081)">
<path d="M13.5296 22.421C13.4991 22.1827 13.4349 21.9872 13.3372 21.8345C13.2272 21.6695 13.0898 21.5504 12.9248 21.4771C12.766 21.3977 12.5613 21.358 12.3109 21.358C11.8955 21.358 11.6053 21.4466 11.4403 21.6237C11.2815 21.7826 11.2021 22.0116 11.2021 22.311C11.2021 22.482 11.2265 22.6226 11.2754 22.7325C11.3243 22.8364 11.3976 22.9219 11.4953 22.9891C11.6419 23.093 11.8832 23.1602 12.2192 23.1907C12.5613 23.2212 12.8485 23.2701 13.0806 23.3373C13.3189 23.3984 13.5266 23.4839 13.7037 23.5939C14.1497 23.8749 14.3727 24.3148 14.3727 24.9135C14.3727 25.1456 14.3269 25.3655 14.2352 25.5732C14.1436 25.781 14.0153 25.9673 13.8504 26.1322C13.6549 26.3216 13.4227 26.4621 13.1539 26.5538C12.8912 26.6454 12.6163 26.6912 12.3292 26.6912C11.6816 26.6912 11.1654 26.5079 10.7805 26.1414C10.4507 25.8115 10.2521 25.3716 10.1849 24.8218L10.2032 24.8127H11.0096C11.0585 25.1364 11.1685 25.3778 11.3395 25.5366C11.5778 25.7565 11.8985 25.8665 12.3017 25.8665C12.6866 25.8665 12.992 25.7779 13.2181 25.6007C13.4441 25.4236 13.5571 25.1945 13.5571 24.9135C13.5571 24.7852 13.5388 24.6752 13.5021 24.5836C13.4716 24.4858 13.4105 24.4003 13.3189 24.327C13.1112 24.1682 12.7232 24.0674 12.1551 24.0246C11.5747 23.9757 11.1349 23.8077 10.8355 23.5206C10.5362 23.2335 10.3865 22.8303 10.3865 22.311C10.3865 21.7856 10.5484 21.361 10.8722 21.0372C11.2143 20.6951 11.6908 20.5241 12.3017 20.5241C12.9371 20.5241 13.4319 20.7165 13.7862 21.1014C14.0978 21.4374 14.2872 21.8772 14.3544 22.421H13.5296ZM17.9793 26.682C17.5639 26.682 17.1698 26.6057 16.7972 26.453C16.4306 26.2941 16.1069 26.0711 15.8258 25.784C15.5448 25.503 15.3249 25.1762 15.1661 24.8035C15.0072 24.4247 14.9278 24.0276 14.9278 23.6122C14.9278 23.1968 15.0042 22.8058 15.1569 22.4393C15.3157 22.0666 15.5387 21.7367 15.8258 21.4496C16.1069 21.1686 16.4306 20.9487 16.7972 20.7898C17.1698 20.631 17.5639 20.5516 17.9793 20.5516C18.3947 20.5516 18.7887 20.631 19.1614 20.7898C19.5341 20.9487 19.8609 21.1686 20.1419 21.4496C20.4229 21.7306 20.6429 22.0575 20.8017 22.4301C20.9605 22.8028 21.0399 23.1968 21.0399 23.6122C21.0399 24.0276 20.9605 24.4247 20.8017 24.8035C20.6429 25.1762 20.4229 25.503 20.1419 25.784C19.8609 26.065 19.5341 26.285 19.1614 26.4438C18.7887 26.6026 18.3947 26.682 17.9793 26.682ZM17.9793 21.3855C17.6799 21.3855 17.3928 21.4435 17.1179 21.5596C16.8491 21.6695 16.6109 21.8284 16.4031 22.0361C16.1954 22.2438 16.0335 22.4851 15.9175 22.76C15.8075 23.0288 15.7525 23.3129 15.7525 23.6122C15.7525 23.9177 15.8106 24.2109 15.9266 24.4919C16.0427 24.7668 16.2015 25.0051 16.4031 25.2067C16.6109 25.4144 16.8491 25.5763 17.1179 25.6924C17.3928 25.8023 17.6799 25.8573 17.9793 25.8573C18.2786 25.8573 18.5627 25.8023 18.8315 25.6924C19.1064 25.5763 19.3477 25.4144 19.5554 25.2067C19.757 25.0051 19.9159 24.7668 20.0319 24.4919C20.148 24.2109 20.2061 23.9177 20.2061 23.6122C20.2061 23.3129 20.148 23.0288 20.0319 22.76C19.922 22.4851 19.7631 22.2438 19.5554 22.0361C19.3477 21.8284 19.1064 21.6695 18.8315 21.5596C18.5627 21.4435 18.2786 21.3855 17.9793 21.3855ZM24.9394 22.421C24.9089 22.1827 24.8447 21.9872 24.747 21.8345C24.637 21.6695 24.4996 21.5504 24.3346 21.4771C24.1758 21.3977 23.9711 21.358 23.7207 21.358C23.3053 21.358 23.0151 21.4466 22.8501 21.6237C22.6913 21.7826 22.6119 22.0116 22.6119 22.311C22.6119 22.482 22.6363 22.6226 22.6852 22.7325C22.7341 22.8364 22.8074 22.9219 22.9051 22.9891C23.0517 23.093 23.293 23.1602 23.629 23.1907C23.9711 23.2212 24.2583 23.2701 24.4904 23.3373C24.7287 23.3984 24.9364 23.4839 25.1135 23.5939C25.5595 23.8749 25.7825 24.3148 25.7825 24.9135C25.7825 25.1456 25.7367 25.3655 25.645 25.5732C25.5534 25.781 25.4251 25.9673 25.2602 26.1322C25.0647 26.3216 24.8325 26.4621 24.5637 26.5538C24.301 26.6454 24.0261 26.6912 23.739 26.6912C23.0914 26.6912 22.5752 26.5079 22.1903 26.1414C21.8605 25.8115 21.6619 25.3716 21.5947 24.8218L21.613 24.8127H22.4194C22.4683 25.1364 22.5783 25.3778 22.7493 25.5366C22.9876 25.7565 23.3083 25.8665 23.7115 25.8665C24.0964 25.8665 24.4018 25.7779 24.6279 25.6007C24.8539 25.4236 24.9669 25.1945 24.9669 24.9135C24.9669 24.7852 24.9486 24.6752 24.9119 24.5836C24.8814 24.4858 24.8203 24.4003 24.7287 24.327C24.521 24.1682 24.133 24.0674 23.5649 24.0246C22.9845 23.9757 22.5447 23.8077 22.2453 23.5206C21.946 23.2335 21.7963 22.8303 21.7963 22.311C21.7963 21.7856 21.9582 21.361 22.282 21.0372C22.6241 20.6951 23.1006 20.5241 23.7115 20.5241C24.3469 20.5241 24.8417 20.7165 25.196 21.1014C25.5076 21.4374 25.697 21.8772 25.7642 22.421H24.9394Z" fill="#FCFCFC"/>
</g>
<defs>
<filter id="filter0_d_1197_8081" x="2.67808" y="0" width="31.2395" height="29.157" filterUnits="userSpaceOnUse" color-interpolation-filters="sRGB">
<feFlood flood-opacity="0" result="BackgroundImageFix"/>
<feColorMatrix in="SourceAlpha" type="matrix" values="0 0 0 0 0 0 0 0 0 0 0 0 0 0 0 0 0 0 127 0" result="hardAlpha"/>
<feOffset dy="1.19008"/>
<feGaussianBlur stdDeviation="0.595041"/>
<feComposite in2="hardAlpha" operator="out"/>
<feColorMatrix type="matrix" values="0 0 0 0 0.241436 0 0 0 0 0.160949 0 0 0 0 0.850833 0 0 0 0.9 0"/>
<feBlend mode="normal" in2="BackgroundImageFix" result="effect1_dropShadow_1197_8081"/>
<feBlend mode="normal" in="SourceGraphic" in2="effect1_dropShadow_1197_8081" result="shape"/>
</filter>
<filter id="filter1_d_1197_8081" x="8.99449" y="19.3338" width="17.9778" height="8.54765" filterUnits="userSpaceOnUse" color-interpolation-filters="sRGB">
<feFlood flood-opacity="0" result="BackgroundImageFix"/>
<feColorMatrix in="SourceAlpha" type="matrix" values="0 0 0 0 0 0 0 0 0 0 0 0 0 0 0 0 0 0 127 0" result="hardAlpha"/>
<feOffset/>
<feGaussianBlur stdDeviation="0.595041"/>
<feComposite in2="hardAlpha" operator="out"/>
<feColorMatrix type="matrix" values="0 0 0 0 0.0359167 0 0 0 0 0 0 0 0 0 0.718333 0 0 0 0.25 0"/>
<feBlend mode="normal" in2="BackgroundImageFix" result="effect1_dropShadow_1197_8081"/>
<feBlend mode="normal" in="SourceGraphic" in2="effect1_dropShadow_1197_8081" result="shape"/>
</filter>
<linearGradient id="paint0_linear_1197_8081" x1="18" y1="2.9751" x2="18" y2="32.7272" gradientUnits="userSpaceOnUse">
<stop stop-color="#4989FF"/>
<stop offset="0.4" stop-color="#4130EE"/>
</linearGradient>
<linearGradient id="paint1_linear_1197_8081" x1="32.5" y1="30" x2="-2.21013e-07" y2="15.5" gradientUnits="userSpaceOnUse">
<stop stop-color="#49C2FF"/>
<stop offset="1" stop-color="#4130EE"/>
</linearGradient>
<linearGradient id="paint2_linear_1197_8081" x1="12.5622" y1="8.37107" x2="12.9364" y2="3.45473" gradientUnits="userSpaceOnUse">
<stop stop-color="#FFA43D"/>
<stop offset="1" stop-color="#FFEC6A"/>
</linearGradient>
<linearGradient id="paint3_linear_1197_8081" x1="13.7538" y1="12.5361" x2="14.058" y2="7.61007" gradientUnits="userSpaceOnUse">
<stop stop-color="#FFA43D"/>
<stop offset="1" stop-color="#FFEC6A"/>
</linearGradient>
</defs>
</svg>
