<svg width="36" height="33" viewBox="0 0 36 33" fill="none" xmlns="http://www.w3.org/2000/svg">
<rect x="10.5068" y="9.4375" width="19.1866" height="19.9211" rx="0.654088" transform="rotate(9.24649 10.5068 9.4375)" fill="url(#paint0_linear_1328_9643)"/>
<rect x="15.4775" y="17.3989" width="6.61435" height="12.8618" rx="0.654088" transform="rotate(9.24649 15.4775 17.3989)" fill="url(#paint1_linear_1328_9643)"/>
<rect x="5.30566" y="23.2983" width="1.30818" height="5.01467" rx="0.436059" transform="rotate(-22.1321 5.30566 23.2983)" fill="url(#paint2_linear_1328_9643)"/>
<path fill-rule="evenodd" clip-rule="evenodd" d="M6.74844 18.6262L3.09421 15.0644C2.82176 14.7988 2.36368 14.9851 2.35392 15.3654L2.2231 20.4665C2.18992 20.6905 2.18341 20.9199 2.20558 21.1499L2.20363 21.2259C2.20355 21.2289 2.20652 21.2309 2.20925 21.2298C2.21174 21.2288 2.21451 21.2304 2.21484 21.2331C2.24516 21.4728 2.30686 21.7125 2.4022 21.9469C2.99195 23.397 4.64553 24.0944 6.09558 23.5046C7.54562 22.9149 8.24303 21.2613 7.65328 19.8113C7.55794 19.5769 7.4348 19.3621 7.28921 19.1693C7.28759 19.1671 7.28844 19.164 7.29094 19.163C7.29368 19.1619 7.29437 19.1584 7.29226 19.1563L7.2376 19.103C7.09305 18.923 6.92842 18.7634 6.74844 18.6262Z" fill="url(#paint3_linear_1328_9643)"/>
<path d="M2.58887 24.4635C3.56006 25.4626 4.53125 26.4618 5.50256 26.1941C6.47376 25.9264 7.44495 24.3918 8.41614 24.4635C9.38745 24.5352 10.3586 26.2133 11.3298 26.1941C12.301 26.1749 13.2723 24.4584 14.2435 24.4635C15.2147 24.4686 16.1859 26.1951 17.1572 26.1941C18.1284 26.1931 19.0996 24.4645 20.0708 24.4635C21.0421 24.4625 22.0133 26.189 22.9845 26.1941C23.9557 26.1992 24.927 24.4827 25.8982 24.4635C26.8694 24.4443 27.8406 26.1224 28.8119 26.1941C29.7831 26.2658 30.7543 24.7312 31.7255 24.4635C32.6968 24.1958 33.668 25.195 34.6392 26.1941V32.3089C33.668 32.3089 32.6968 32.3089 31.7255 32.3089C30.7543 32.3089 29.7831 32.3089 28.8119 32.3089C27.8406 32.3089 26.8694 32.3089 25.8982 32.3089C24.927 32.3089 23.9557 32.3089 22.9845 32.3089C22.0133 32.3089 21.0421 32.3089 20.0708 32.3089C19.0996 32.3089 18.1284 32.3089 17.1572 32.3089C16.1859 32.3089 15.2147 32.3089 14.2435 32.3089C13.2723 32.3089 12.301 32.3089 11.3298 32.3089C10.3586 32.3089 9.38745 32.3089 8.41614 32.3089C7.44495 32.3089 6.47376 32.3089 5.50256 32.3089C4.53125 32.3089 3.56006 32.3089 2.58887 32.3089V24.4635Z" fill="url(#paint4_linear_1328_9643)"/>
<path d="M2.58887 27.2975C3.56006 28.2967 4.53125 29.2958 5.50256 29.0281C6.47376 28.7604 7.44495 27.2258 8.41614 27.2975C9.38745 27.3692 10.3586 29.0473 11.3298 29.0281C12.301 29.009 13.2723 27.2925 14.2435 27.2975C15.2147 27.3026 16.1859 29.0291 17.1572 29.0281C18.1284 29.0271 19.0996 27.2985 20.0708 27.2975C21.0421 27.2965 22.0133 29.0231 22.9845 29.0281C23.9557 29.0332 24.927 27.3167 25.8982 27.2975C26.8694 27.2784 27.8406 28.9564 28.8119 29.0281C29.7831 29.0998 30.7543 27.5652 31.7255 27.2975C32.6968 27.0297 33.668 28.029 34.6392 29.0281V32.2586C33.668 32.2586 32.6968 32.2586 31.7255 32.2586C30.7543 32.2586 29.7831 32.2586 28.8119 32.2586C27.8406 32.2586 26.8694 32.2586 25.8982 32.2586C24.927 32.2586 23.9557 32.2586 22.9845 32.2586C22.0133 32.2586 21.0421 32.2586 20.0708 32.2586C19.0996 32.2586 18.1284 32.2586 17.1572 32.2586C16.1859 32.2586 15.2147 32.2586 14.2435 32.2586C13.2723 32.2586 12.301 32.2586 11.3298 32.2586C10.3586 32.2586 9.38745 32.2586 8.41614 32.2586C7.44495 32.2586 6.47376 32.2586 5.50256 32.2586C4.53125 32.2586 3.56006 32.2586 2.58887 32.2586V27.2975Z" fill="url(#paint5_linear_1328_9643)"/>
<path d="M29.9659 1.68473C30.276 1.2636 30.9206 1.15119 31.136 1.6277C31.8067 3.11076 31.5115 4.874 31.2166 5.941C31.0867 6.41069 31.4416 6.84957 31.8365 6.56411C31.9367 6.49169 32.0381 6.404 32.1371 6.29781C32.4942 5.91464 33.1367 5.78601 33.379 6.25041C33.9525 7.35002 34.0923 8.67022 33.6686 9.90224C32.8373 12.3201 30.1306 13.5813 27.6232 12.7191C25.1157 11.8569 23.757 9.1979 24.5884 6.78001C25.6498 3.69345 28.5429 3.61735 29.9659 1.68473Z" fill="url(#paint6_linear_1328_9643)"/>
<path fill-rule="evenodd" clip-rule="evenodd" d="M4.78694 9.99533L14.9789 4.41834L18.3454 5.97055L18.4346 2.52739L20.8657 1.19715C21.2163 1.00531 21.6524 1.07631 21.924 1.36944L34.3818 14.8133C34.9459 15.4221 34.4212 16.4002 33.602 16.2669L26.9523 15.1843L25.6799 11.9637L23.7859 14.6688L5.06544 11.6212C4.24628 11.4878 4.05887 10.3937 4.78694 9.99533Z" fill="url(#paint7_linear_1328_9643)"/>
<circle cx="19.922" cy="22.7838" r="0.545073" fill="url(#paint8_linear_1328_9643)"/>
<path d="M3.28617 1.75579C2.97089 1.64429 2.64043 1.90098 2.68322 2.23264C2.9168 4.04307 3.14846 5.45957 4.21567 7.21057C4.64777 7.91951 5.21866 8.90311 5.33686 9.10718C5.35175 9.13289 5.36846 9.15595 5.38784 9.17848C5.56065 9.37925 6.46157 10.4575 6.8977 11.6073C7.38135 12.8824 7.21413 12.839 7.29341 13.6738C7.32458 14.0021 7.33228 14.401 7.32977 14.7709C7.32702 15.1739 7.81348 15.3856 8.08404 15.0869C8.42017 14.7159 8.7934 14.2767 9.05212 13.8937C9.76341 12.8405 10.0176 12.1488 10.4549 10.9592L10.4591 10.9478C10.8643 9.8453 11.1173 9.21302 11.2505 8.04595C11.3498 7.1759 11.31 6.54431 11.31 5.66862C11.31 4.90552 11.3376 4.65011 11.31 3.92439C11.2859 3.29013 11.2694 2.45848 11.26 1.88805C11.2549 1.57496 10.9333 1.3662 10.6423 1.48185C7.69923 2.65161 5.89193 2.6773 3.28617 1.75579Z" fill="url(#paint9_linear_1328_9643)"/>
<ellipse cx="6.89768" cy="1.58284" rx="4.26487" ry="1.58284" fill="url(#paint10_linear_1328_9643)"/>
<defs>
<linearGradient id="paint0_linear_1328_9643" x1="18.191" y1="36.3008" x2="30.3481" y2="4.1032" gradientUnits="userSpaceOnUse">
<stop stop-color="#FFA43D"/>
<stop offset="1" stop-color="#FFEC6A"/>
</linearGradient>
<linearGradient id="paint1_linear_1328_9643" x1="19.6706" y1="27.4569" x2="20.1954" y2="6.17838" gradientUnits="userSpaceOnUse">
<stop stop-color="#FF0004"/>
<stop offset="1" stop-color="#FFC0C1"/>
</linearGradient>
<linearGradient id="paint2_linear_1328_9643" x1="5.95975" y1="23.2983" x2="5.95975" y2="28.313" gradientUnits="userSpaceOnUse">
<stop stop-color="#83450D" stop-opacity="0.8"/>
<stop offset="1" stop-color="#4A280A"/>
</linearGradient>
<linearGradient id="paint3_linear_1328_9643" x1="6.10354" y1="23.5242" x2="3.29451" y2="14.1505" gradientUnits="userSpaceOnUse">
<stop stop-color="#1EA754"/>
<stop offset="1" stop-color="#9EF14F"/>
</linearGradient>
<linearGradient id="paint4_linear_1328_9643" x1="20.7591" y1="24.4194" x2="20.7591" y2="32.2685" gradientUnits="userSpaceOnUse">
<stop stop-color="#6ED8E8"/>
<stop offset="1" stop-color="#3E7982"/>
</linearGradient>
<linearGradient id="paint5_linear_1328_9643" x1="20.3806" y1="27.2534" x2="20.2864" y2="32.2687" gradientUnits="userSpaceOnUse">
<stop stop-color="#6BE4F4"/>
<stop offset="1" stop-color="#078493"/>
</linearGradient>
<linearGradient id="paint6_linear_1328_9643" x1="27.6144" y1="12.7448" x2="30.8395" y2="0.315197" gradientUnits="userSpaceOnUse">
<stop stop-color="#FF503D"/>
<stop offset="1" stop-color="#FFEC6A"/>
</linearGradient>
<linearGradient id="paint7_linear_1328_9643" x1="20.4536" y1="18.5993" x2="24.0283" y2="-6.00336" gradientUnits="userSpaceOnUse">
<stop stop-color="#FF0004"/>
<stop offset="1" stop-color="#FFC0C1"/>
</linearGradient>
<linearGradient id="paint8_linear_1328_9643" x1="19.8136" y1="23.7088" x2="20.4601" y2="21.9308" gradientUnits="userSpaceOnUse">
<stop stop-color="#FFA43D"/>
<stop offset="1" stop-color="#FFEC6A"/>
</linearGradient>
<linearGradient id="paint9_linear_1328_9643" x1="7.43015" y1="1.23096" x2="4.56665" y2="15.371" gradientUnits="userSpaceOnUse">
<stop stop-color="#13A6FF"/>
<stop offset="1" stop-color="#075E93"/>
</linearGradient>
<linearGradient id="paint10_linear_1328_9643" x1="7.36782" y1="3.96436e-09" x2="7.22647" y2="3.16686" gradientUnits="userSpaceOnUse">
<stop stop-color="#1AB3EF"/>
<stop offset="1" stop-color="#1184B1"/>
</linearGradient>
</defs>
</svg>
