<svg width="36" height="34" viewBox="0 0 36 34" fill="none" xmlns="http://www.w3.org/2000/svg">
<path d="M12.3155 6.29728C15.3711 9.12976 18.6305 9.22418 21.5843 6.29728C24.5381 3.37038 22.6029 20.6485 22.6029 20.6485L16.899 21.9703L11.3988 20.6485C11.3988 20.6485 9.25976 3.4648 12.3155 6.29728Z" fill="url(#paint0_linear_1312_11455)"/>
<path fill-rule="evenodd" clip-rule="evenodd" d="M11.9239 3.20981C11.9133 1.43528 10.4715 0 8.69452 0C6.91097 0 5.46512 1.44585 5.46512 3.2294V10.4412C5.46512 10.8484 5.14103 11.1773 4.73929 11.2442C2.05011 11.6916 0 14.0289 0 16.845V27.8226C0 30.9585 2.54216 33.5007 5.67807 33.5007H10.883C14.0189 33.5007 16.561 30.9585 16.561 27.8226V16.845C16.561 16.5425 16.3144 16.3096 16.0166 16.2566C13.6902 15.843 11.9239 13.8104 11.9239 11.3652V3.20981ZM16.8922 16.3336C16.8119 16.3336 16.7435 16.3939 16.7384 16.474C16.7304 16.5966 16.7264 16.7203 16.7264 16.845V27.8226C16.7264 30.9585 19.2686 33.5007 22.4045 33.5007H27.4438C30.5797 33.5007 33.1218 30.9585 33.1218 27.8226V16.845C33.1218 14.2319 31.3566 12.031 28.9536 11.3698C28.5936 11.2708 28.3192 10.9585 28.3192 10.5851V3.22938C28.3192 1.44584 26.8734 -1.62231e-05 25.0898 -1.62231e-05C23.3141 -1.62231e-05 21.8731 1.43314 21.8605 3.20586V11.3652C21.8605 14.1092 19.6361 16.3336 16.8922 16.3336Z" fill="url(#paint1_linear_1312_11455)"/>
<rect y="24.1675" width="33.2694" height="4.39407" fill="url(#paint2_linear_1312_11455)"/>
<rect y="18.5181" width="33.2694" height="4.39407" fill="url(#paint3_linear_1312_11455)"/>
<path fill-rule="evenodd" clip-rule="evenodd" d="M28.7869 10.748C28.2523 11.4323 27.9337 12.2935 27.9337 13.2291C27.9337 15.4565 29.7394 17.2622 31.9669 17.2622C34.1943 17.2622 36 15.4565 36 13.2291C36 12.4983 35.8057 11.813 35.4659 11.2219L35.4756 11.2127C34.5594 9.79939 33.822 9.12959 32.7976 8.19902L32.7618 8.16645C32.3119 7.75776 31.6252 7.73317 31.1697 8.13557C30.1068 9.07457 29.419 9.84914 28.7869 10.748Z" fill="url(#paint4_linear_1312_11455)"/>
<path fill-rule="evenodd" clip-rule="evenodd" d="M20.9095 18.3084C20.1975 19.2205 19.7733 20.368 19.7733 21.6147C19.7733 24.5846 22.1809 26.9922 25.1508 26.9922C28.1207 26.9922 30.5283 24.5846 30.5283 21.6147C30.5283 20.6403 30.2692 19.7265 29.816 18.9383L29.8292 18.9259C28.6075 17.0415 27.6244 16.1484 26.2585 14.9077L26.2107 14.8642C25.6109 14.3193 24.6953 14.2865 24.0879 14.8231C22.6699 16.0758 21.7526 17.109 20.9095 18.3084Z" fill="url(#paint5_linear_1312_11455)"/>
<defs>
<linearGradient id="paint0_linear_1312_11455" x1="16.9481" y1="5.96338" x2="16.9481" y2="21.9703" gradientUnits="userSpaceOnUse">
<stop stop-color="#4989FF"/>
<stop offset="1" stop-color="#4130EE"/>
</linearGradient>
<linearGradient id="paint1_linear_1312_11455" x1="18" y1="39" x2="17.46" y2="-8.9883" gradientUnits="userSpaceOnUse">
<stop stop-color="#FF503D"/>
<stop offset="1" stop-color="#FFEC6A"/>
</linearGradient>
<linearGradient id="paint2_linear_1312_11455" x1="16.6347" y1="24.1675" x2="16.6347" y2="28.5615" gradientUnits="userSpaceOnUse">
<stop stop-color="#4989FF"/>
<stop offset="1" stop-color="#4130EE"/>
</linearGradient>
<linearGradient id="paint3_linear_1312_11455" x1="16.6347" y1="18.5181" x2="16.6347" y2="22.9121" gradientUnits="userSpaceOnUse">
<stop stop-color="#4989FF"/>
<stop offset="1" stop-color="#4130EE"/>
</linearGradient>
<linearGradient id="paint4_linear_1312_11455" x1="31.9669" y1="7.84635" x2="31.9669" y2="17.2622" gradientUnits="userSpaceOnUse">
<stop stop-color="#F8FAFF"/>
<stop offset="1" stop-color="#008CFF"/>
</linearGradient>
<linearGradient id="paint5_linear_1312_11455" x1="25.1508" y1="14.4377" x2="25.1508" y2="26.9922" gradientUnits="userSpaceOnUse">
<stop stop-color="#F8FAFF"/>
<stop offset="1" stop-color="#008CFF"/>
</linearGradient>
</defs>
</svg>
