<svg width="36" height="36" viewBox="0 0 36 36" fill="none" xmlns="http://www.w3.org/2000/svg">
<circle cx="18" cy="18" r="18" fill="url(#paint0_linear_1328_9725)"/>
<path d="M17.708 24.7783C18.498 24.7783 19.1228 25.0166 19.5527 25.5156H19.5537C19.9724 25.9808 20.1816 26.5418 20.1816 27.1875C20.1815 27.8329 19.9726 28.4024 19.5566 28.8877L19.5537 28.8906C19.1229 29.3692 18.4973 29.5957 17.708 29.5957C16.9379 29.5957 16.3157 29.3677 15.8652 28.8936L15.8594 28.8877C15.4434 28.4024 15.2345 27.8329 15.2344 27.1875C15.2344 26.5418 15.4436 25.9808 15.8623 25.5156L16.0391 25.3408C16.4702 24.9619 17.032 24.7783 17.708 24.7783ZM17.5781 6.66699C18.7558 6.66699 19.7885 6.80799 20.6729 7.09473C21.5532 7.35884 22.2882 7.74678 22.8711 8.26074C23.4766 8.75408 23.9269 9.36086 24.2188 10.0791C24.5088 10.793 24.6523 11.5722 24.6523 12.4131C24.6523 13.2534 24.5092 14.0018 24.2168 14.6543C23.9517 15.2723 23.6087 15.8463 23.1895 16.376C22.7732 16.9017 22.313 17.3948 21.8096 17.8545C21.3373 18.2838 20.8975 18.7129 20.4902 19.1416C20.0892 19.5638 19.752 20.0171 19.4785 20.501C19.2357 20.9472 19.1123 21.4571 19.1123 22.0352C19.1123 22.4625 18.952 22.8905 18.6855 23.2129C18.4184 23.536 18.0348 23.7637 17.5869 23.7637H17.0645C16.5076 23.7637 15.9382 23.4729 15.7607 22.8965L15.7598 22.8926C15.6686 22.5734 15.623 22.233 15.623 21.873C15.6231 21.1602 15.7574 20.5187 16.0293 19.9521C16.2941 19.4004 16.6144 18.892 16.9902 18.4277V18.4268C17.3836 17.9459 17.8099 17.4866 18.2686 17.0498C18.7171 16.6226 19.1232 16.1857 19.4854 15.7383L19.4883 15.7344C19.8684 15.2909 20.184 14.8272 20.4365 14.3438C20.6823 13.8522 20.8076 13.2961 20.8076 12.6719C20.8076 12.3255 20.7464 11.9893 20.624 11.6631C20.5043 11.3438 20.3143 11.0637 20.0527 10.8223C19.7939 10.5835 19.4495 10.3894 19.0137 10.2441L19.0039 10.2412V10.2393C18.5983 10.0772 18.0924 9.99417 17.4814 9.99414C16.5691 9.99414 15.6782 10.1215 14.8086 10.376C14.5414 10.4542 14.283 10.537 14.0342 10.625C13.1106 10.9515 12.0148 10.5182 11.7119 9.55371C11.4809 8.81797 11.8033 7.99883 12.5391 7.70312C13.0236 7.50838 13.5533 7.32677 14.1279 7.15918C15.1825 6.83003 16.3331 6.66701 17.5781 6.66699Z" fill="url(#paint1_linear_1328_9725)" stroke="url(#paint2_linear_1328_9725)" stroke-width="0.346312"/>
<defs>
<linearGradient id="paint0_linear_1328_9725" x1="14.4179" y1="48.5455" x2="35.7702" y2="-10.1701" gradientUnits="userSpaceOnUse">
<stop stop-color="#FFA43D"/>
<stop offset="1" stop-color="#FFEC6A"/>
</linearGradient>
<linearGradient id="paint1_linear_1328_9725" x1="17.9995" y1="6.83984" x2="17.9995" y2="29.4226" gradientUnits="userSpaceOnUse">
<stop stop-color="#4989FF"/>
<stop offset="1" stop-color="#4130EE"/>
</linearGradient>
<linearGradient id="paint2_linear_1328_9725" x1="17.9995" y1="6.83984" x2="17.9995" y2="29.4226" gradientUnits="userSpaceOnUse">
<stop stop-color="#4989FF"/>
<stop offset="1" stop-color="#4130EE"/>
</linearGradient>
</defs>
</svg>
