<svg width="38" height="35" viewBox="0 0 38 35" fill="none" xmlns="http://www.w3.org/2000/svg">
<path d="M18.0025 1.75791C17.5467 0.302603 15.8758 -0.618579 14.8298 0.491125C11.5742 3.9449 10.7163 9.08708 10.5179 12.3091C10.4306 13.7274 9.03594 14.6012 8.2175 13.4396C8.00986 13.1449 7.81328 12.8068 7.64107 12.4202C7.01962 11.0249 5.36982 10.061 4.26148 11.112C1.63717 13.6004 0 17.1084 0 20.9075C0 28.3634 6.268 34.4075 14 34.4075C21.732 34.4075 28 28.3634 28 20.9075C27.9999 11.3897 20.094 8.43656 18.0025 1.75791Z" fill="url(#paint0_linear_1312_2062)"/>
<path d="M28.6964 5.94044C28.299 4.67156 26.8422 3.86837 25.9301 4.83593C23.0916 7.84728 22.3435 12.3308 22.1706 15.14C22.0944 16.3767 20.8784 17.1385 20.1649 16.1257C19.9838 15.8687 19.8124 15.574 19.6623 15.2369C19.1204 14.0204 17.682 13.1799 16.7156 14.0962C14.4275 16.2659 13 19.3246 13 22.637C13 29.1378 18.4651 34.4077 25.2066 34.4077C31.9482 34.4077 37.4133 29.1378 37.4133 22.637C37.4132 14.3384 30.52 11.7636 28.6964 5.94044Z" fill="url(#paint1_linear_1312_2062)"/>
<defs>
<linearGradient id="paint0_linear_1312_2062" x1="16" y1="36.9075" x2="16.528" y2="-3.08549" gradientUnits="userSpaceOnUse">
<stop stop-color="#FF0004"/>
<stop offset="1" stop-color="#FFC0C1"/>
</linearGradient>
<linearGradient id="paint1_linear_1312_2062" x1="25.2066" y1="34.4767" x2="27.7283" y2="1.9254" gradientUnits="userSpaceOnUse">
<stop stop-color="#FF503D"/>
<stop offset="1" stop-color="#FFEC6A"/>
</linearGradient>
</defs>
</svg>
