<svg width="36" height="32" viewBox="0 0 36 32" fill="none" xmlns="http://www.w3.org/2000/svg">
<path d="M16.6771 0.76378C17.2651 -0.254592 18.7349 -0.254594 19.3229 0.763778L35.7931 29.2909C36.381 30.3093 35.6461 31.5823 34.4702 31.5823H1.52984C0.353925 31.5823 -0.381025 30.3093 0.206933 29.2909L16.6771 0.76378Z" fill="url(#paint0_linear_1328_13319)"/>
<path d="M19.1089 21.1139C19.08 21.6631 18.6262 22.0936 18.0762 22.0936C17.5263 22.0936 17.0725 21.6631 17.0436 21.1139L16.6563 13.7544V11.0435C16.6563 10.2593 17.292 9.62354 18.0762 9.62354C18.8605 9.62354 19.4962 10.2593 19.4962 11.0435V13.7544L19.1089 21.1139ZM18.0762 27.3088C17.491 27.3088 17.0349 27.1367 16.7079 26.7924C16.3981 26.4482 16.2432 26.0351 16.2432 25.5532C16.2432 25.0712 16.3981 24.6582 16.7079 24.3139C17.0349 23.9525 17.491 23.7717 18.0762 23.7717C18.6614 23.7717 19.109 23.9525 19.4188 24.3139C19.7458 24.6582 19.9093 25.0712 19.9093 25.5532C19.9093 26.0351 19.7458 26.4482 19.4188 26.7924C19.109 27.1367 18.6614 27.3088 18.0762 27.3088Z" fill="url(#paint1_linear_1328_13319)"/>
<path fill-rule="evenodd" clip-rule="evenodd" d="M16.4551 13.7599V11.0437C16.4551 10.1483 17.181 9.42236 18.0764 9.42236C18.9719 9.42236 19.6978 10.1483 19.6978 11.0437V13.7599L19.3101 21.1246C19.2756 21.7808 18.7335 22.2951 18.0764 22.2951C17.4193 22.2951 16.8772 21.7808 16.8427 21.1246L16.4551 13.7599ZM16.5602 26.9293L16.5584 26.9273C16.2139 26.5445 16.042 26.0828 16.042 25.5534C16.042 25.0239 16.2139 24.5622 16.5584 24.1794L16.5588 24.179C16.9316 23.767 17.4467 23.5706 18.0764 23.5706C18.7037 23.5706 19.2119 23.7657 19.5685 24.1791C19.9293 24.5607 20.1108 25.0224 20.1108 25.5534C20.1108 26.0851 19.9287 26.5474 19.5668 26.9293C19.2093 27.3253 18.7015 27.5103 18.0764 27.5103C17.4498 27.5103 16.9357 27.3245 16.5621 26.9313L16.5602 26.9293ZM19.419 26.7926C19.746 26.4484 19.9095 26.0353 19.9095 25.5534C19.9095 25.0714 19.746 24.6583 19.419 24.3141C19.1091 23.9527 18.6616 23.7719 18.0764 23.7719C17.4912 23.7719 17.0351 23.9527 16.7081 24.3141C16.3983 24.6583 16.2434 25.0714 16.2434 25.5534C16.2434 26.0353 16.3983 26.4484 16.7081 26.7926C17.0351 27.1369 17.4912 27.309 18.0764 27.309C18.6616 27.309 19.1091 27.1369 19.419 26.7926ZM16.6564 13.7546L17.0438 21.114C17.0727 21.6633 17.5264 22.0938 18.0764 22.0938C18.6264 22.0938 19.0802 21.6633 19.1091 21.114L19.4964 13.7546V11.0437C19.4964 10.2595 18.8607 9.62372 18.0764 9.62372C17.2922 9.62372 16.6564 10.2595 16.6564 11.0437V13.7546Z" fill="url(#paint2_linear_1328_13319)"/>
<defs>
<linearGradient id="paint0_linear_1328_13319" x1="14.4179" y1="42.5882" x2="31.3057" y2="-10.3464" gradientUnits="userSpaceOnUse">
<stop stop-color="#FFA43D"/>
<stop offset="1" stop-color="#FFEC6A"/>
</linearGradient>
<linearGradient id="paint1_linear_1328_13319" x1="18.0197" y1="1.73687" x2="25.9112" y2="21.8439" gradientUnits="userSpaceOnUse">
<stop stop-color="#181818"/>
<stop offset="1" stop-color="#454545"/>
</linearGradient>
<linearGradient id="paint2_linear_1328_13319" x1="18.0137" y1="1.3561" x2="25.6044" y2="22.3433" gradientUnits="userSpaceOnUse">
<stop stop-color="#181818"/>
<stop offset="1" stop-color="#454545"/>
</linearGradient>
</defs>
</svg>
