<svg width="36" height="30" viewBox="0 0 36 30" fill="none" xmlns="http://www.w3.org/2000/svg">
<rect x="7.86719" y="17.4746" width="5.68357" height="5.16925" rx="1.36406" transform="rotate(16.6413 7.86719 17.4746)" fill="url(#paint0_linear_1328_9521)"/>
<rect x="26.1641" y="22.9438" width="5.68357" height="5.21421" rx="1.36406" transform="rotate(16.6413 26.1641 22.9438)" fill="url(#paint1_linear_1328_9521)"/>
<mask id="path-3-outside-1_1328_9521" maskUnits="userSpaceOnUse" x="10.9663" y="0.778856" width="24.5151" height="17.7977" fill="black">
<rect fill="white" x="10.9663" y="0.778856" width="24.5151" height="17.7977"/>
<path fill-rule="evenodd" clip-rule="evenodd" d="M18.9217 6.30437C18.2289 6.0973 17.4878 6.41977 17.167 7.06779L15.9829 9.46029L29.4375 13.4818L29.7658 10.8369C29.855 10.1181 29.4122 9.43996 28.7183 9.23254L18.9217 6.30437Z"/>
</mask>
<path d="M17.167 7.06779L13.907 5.45427L13.907 5.45427L17.167 7.06779ZM15.9829 9.46029L12.7229 7.84677C12.2474 8.80735 12.2198 9.9287 12.6474 10.9115C13.075 11.8943 13.9143 12.6385 14.9412 12.9454L15.9829 9.46029ZM29.4375 13.4818L28.3958 16.967C29.4214 17.2735 30.5299 17.1128 31.4262 16.5276C32.3224 15.9424 32.9154 14.9921 33.0473 13.9299L29.4375 13.4818ZM29.7658 10.8369L26.156 10.3888L26.156 10.3888L29.7658 10.8369ZM20.4271 8.68132C19.9615 9.622 18.8856 10.0901 17.88 9.78951L19.9634 2.81923C17.5722 2.10452 15.014 3.21754 13.907 5.45427L20.4271 8.68132ZM19.2429 11.0738L20.4271 8.68132L13.907 5.45427L12.7229 7.84677L19.2429 11.0738ZM14.9412 12.9454L28.3958 16.967L30.4792 9.9967L17.0246 5.97516L14.9412 12.9454ZM26.156 10.3888L25.8277 13.0338L33.0473 13.9299L33.3756 11.2849L26.156 10.3888ZM27.6766 12.7177C26.6692 12.4166 26.0265 11.4322 26.156 10.3888L33.3756 11.2849C33.6835 8.80398 32.1552 6.46333 29.76 5.7474L27.6766 12.7177ZM17.88 9.78951L27.6766 12.7177L29.76 5.7474L19.9634 2.81923L17.88 9.78951Z" fill="url(#paint2_linear_1328_9521)" mask="url(#path-3-outside-1_1328_9521)"/>
<path fill-rule="evenodd" clip-rule="evenodd" d="M8.1012 11.1375C8.71247 9.09244 10.8659 7.9301 12.911 8.54137L32.297 14.3358C34.3421 14.9471 35.5045 17.1005 34.8932 19.1456L33.5911 23.502C32.9798 25.5471 30.8264 26.7094 28.7813 26.0982L9.39523 20.3037C7.35015 19.6924 6.18781 17.539 6.79908 15.494L8.1012 11.1375ZM14.5648 16.7474C14.1767 17.7157 12.5977 17.0703 11.5329 16.635L11.5329 16.635C11.445 16.5991 11.3605 16.5646 11.2806 16.5325C10.2324 16.1124 9.72319 14.9221 10.1433 13.8738C10.5634 12.8256 11.7538 12.3165 12.802 12.7366C13.8502 13.1567 14.9849 15.6992 14.5648 16.7474ZM28.9549 21.8433C27.8259 21.6228 26.1517 21.2958 26.3586 20.2734C26.5827 19.1666 28.9265 17.6638 30.0333 17.8878C31.1402 18.1119 31.8558 19.1907 31.6318 20.2976C31.4078 21.4044 30.3289 22.1201 29.2221 21.896C29.1377 21.879 29.0481 21.8615 28.9549 21.8433Z" fill="url(#paint3_linear_1328_9521)"/>
<path d="M14.5651 16.7481C14.1449 17.7963 12.3291 16.9533 11.2808 16.5332C10.2326 16.1131 9.72346 14.9227 10.1436 13.8745C10.5637 12.8263 11.754 12.3171 12.8023 12.7373C13.8505 13.1574 14.9852 15.6999 14.5651 16.7481Z" fill="url(#paint4_linear_1328_9521)"/>
<path d="M26.3593 20.2734C26.1353 21.3803 28.1159 21.672 29.2228 21.896C30.3296 22.1201 31.4085 21.4044 31.6325 20.2976C31.8565 19.1907 31.1408 18.1119 30.034 17.8878C28.9272 17.6638 26.5833 19.1666 26.3593 20.2734Z" fill="url(#paint5_linear_1328_9521)"/>
<path fill-rule="evenodd" clip-rule="evenodd" d="M8.02701 0.25409C8.13745 -0.0896308 8.6261 -0.0828858 8.72701 0.263752L9.80699 3.9737C9.8713 4.19461 10.1211 4.30213 10.3257 4.197L13.7628 2.43154C14.0839 2.26658 14.4247 2.61688 14.2509 2.93334L14.1875 3.04888C13.3651 3.43365 12.6679 4.0897 12.24 4.95429L11.2866 6.88046C11.2098 7.03559 11.1476 7.19593 11.0998 7.35954C9.56081 7.08021 8.02508 7.99725 7.56666 9.53097L6.68767 12.4717C6.59115 12.3119 6.38262 12.2458 6.20721 12.3359L2.77018 14.1014C2.44904 14.2664 2.10828 13.9161 2.28204 13.5996L4.14171 10.2126C4.25245 10.0109 4.15187 9.75828 3.93281 9.6879L0.25409 8.50593C-0.0896309 8.39549 -0.0828857 7.90683 0.263752 7.80593L3.9737 6.72595C4.19461 6.66164 4.30213 6.41188 4.197 6.20721L2.43154 2.77018C2.26658 2.44904 2.61688 2.10828 2.93335 2.28204L6.32033 4.14171C6.52202 4.25245 6.77465 4.15186 6.84504 3.93281L8.02701 0.25409Z" fill="url(#paint6_linear_1328_9521)"/>
<defs>
<linearGradient id="paint0_linear_1328_9521" x1="10.6214" y1="15.1694" x2="11.1205" y2="21.9149" gradientUnits="userSpaceOnUse">
<stop stop-color="#181818"/>
<stop offset="1" stop-color="#454545"/>
</linearGradient>
<linearGradient id="paint1_linear_1328_9521" x1="28.9183" y1="20.6186" x2="29.4261" y2="27.4221" gradientUnits="userSpaceOnUse">
<stop stop-color="#181818"/>
<stop offset="1" stop-color="#454545"/>
</linearGradient>
<linearGradient id="paint2_linear_1328_9521" x1="23.8171" y1="7.7676" x2="22.7102" y2="11.471" gradientUnits="userSpaceOnUse">
<stop stop-color="#4989FF"/>
<stop offset="1" stop-color="#4130EE"/>
</linearGradient>
<linearGradient id="paint3_linear_1328_9521" x1="22.604" y1="11.4386" x2="19.0883" y2="23.2009" gradientUnits="userSpaceOnUse">
<stop stop-color="#4989FF"/>
<stop offset="1" stop-color="#4130EE"/>
</linearGradient>
<linearGradient id="paint4_linear_1328_9521" x1="10.7745" y1="17.8695" x2="15.2346" y2="12.138" gradientUnits="userSpaceOnUse">
<stop stop-color="#FFA43D"/>
<stop offset="1" stop-color="#FFEC6A"/>
</linearGradient>
<linearGradient id="paint5_linear_1328_9521" x1="28.9128" y1="23.291" x2="28.3294" y2="16.0521" gradientUnits="userSpaceOnUse">
<stop stop-color="#FFA43D"/>
<stop offset="1" stop-color="#FFEC6A"/>
</linearGradient>
<linearGradient id="paint6_linear_1328_9521" x1="9.42312" y1="8.07696" x2="4.42812" y2="1.39479" gradientUnits="userSpaceOnUse">
<stop stop-color="#FF6767"/>
<stop offset="1" stop-color="#FF8800"/>
</linearGradient>
</defs>
</svg>
