<svg width="37" height="29" viewBox="0 0 37 29" fill="none" xmlns="http://www.w3.org/2000/svg">
<rect x="5.35938" y="25.3828" width="10.4665" height="3.50799" rx="0.57508" fill="url(#paint0_linear_1328_13395)"/>
<path d="M6.91428 25.3826C6.74653 25.3826 6.60308 25.2619 6.57434 25.0967L6.40674 24.133C6.39837 24.0848 6.37932 24.0382 6.35191 23.9977C3.74282 20.1436 2.60646 17.9236 1.01989 13.9882C0.999313 13.9372 0.990966 13.8812 0.996112 13.8264L1.95871 3.57753C1.96346 3.527 1.97958 3.47741 2.00579 3.43395C2.74618 2.20599 3.30308 2.03631 4.33744 2.08949C4.36629 2.09097 4.39565 2.09638 4.42314 2.10528C5.51317 2.45825 5.89676 2.86536 5.98876 3.92828C5.99061 3.94967 5.99032 3.97161 5.98804 3.99296L5.32087 10.2199C6.09317 9.71232 7.1873 9.80256 7.86049 11.0343C9.1204 13.3397 11.255 16.9447 11.5384 17.4223C11.5597 17.4583 11.5871 17.489 11.6197 17.5151C14.3071 19.6651 15.3406 21.3619 14.3145 25.1312C14.2741 25.2795 14.1381 25.3826 13.9845 25.3826H6.91428Z" fill="url(#paint1_linear_1328_13395)"/>
<path fill-rule="evenodd" clip-rule="evenodd" d="M5.19481 10.0594C4.29071 10.5757 3.9763 11.7271 4.49254 12.6312L8.33939 19.3682L4.68322 21.428C5.17293 22.2234 5.72251 23.0676 6.36001 24.0093C6.38743 24.0498 6.40647 24.0964 6.41485 24.1446L6.58244 25.1082C6.61118 25.2735 6.75463 25.3941 6.92239 25.3941H13.9926C14.1462 25.3941 14.2822 25.291 14.3226 25.1428C15.3483 21.3748 14.316 19.6778 11.6307 17.529L7.76655 10.7617C7.25031 9.85761 6.0989 9.54319 5.19481 10.0594Z" fill="url(#paint2_linear_1328_13395)"/>
<rect width="10.4665" height="3.50799" rx="0.57508" transform="matrix(-1 0 0 1 32.6172 25.3828)" fill="url(#paint3_linear_1328_13395)"/>
<path d="M31.0623 25.3826C31.23 25.3826 31.3735 25.2619 31.4022 25.0967L31.5698 24.133C31.5782 24.0848 31.5972 24.0382 31.6247 23.9977C34.2337 20.1436 35.3701 17.9236 36.9567 13.9882C36.9772 13.9372 36.9856 13.8812 36.9805 13.8264L36.0179 3.57753C36.0131 3.527 35.997 3.47741 35.9708 3.43395C35.2304 2.20599 34.6735 2.03631 33.6391 2.08949C33.6103 2.09097 33.5809 2.09638 33.5534 2.10528C32.4634 2.45825 32.0798 2.86536 31.9878 3.92828C31.9859 3.94967 31.9862 3.97161 31.9885 3.99296L32.6557 10.2199C31.8834 9.71232 30.7893 9.80256 30.1161 11.0343C28.8562 13.3397 26.7215 16.9447 26.4382 17.4223C26.4169 17.4583 26.3895 17.489 26.3568 17.5151C23.6694 19.6651 22.636 21.3619 23.6621 25.1312C23.7025 25.2795 23.8384 25.3826 23.9921 25.3826H31.0623Z" fill="url(#paint4_linear_1328_13395)"/>
<path fill-rule="evenodd" clip-rule="evenodd" d="M32.7818 10.0594C33.6859 10.5757 34.0003 11.7271 33.484 12.6312L29.6372 19.3682L33.2933 21.428C32.8036 22.2234 32.2541 23.0676 31.6166 24.0093C31.5891 24.0498 31.5701 24.0964 31.5617 24.1446L31.3941 25.1082C31.3654 25.2735 31.2219 25.3941 31.0542 25.3941H23.984C23.8303 25.3941 23.6943 25.291 23.654 25.1428C22.6282 21.3748 23.6606 19.6778 26.3459 17.529L30.21 10.7617C30.7262 9.85761 31.8777 9.54319 32.7818 10.0594Z" fill="url(#paint5_linear_1328_13395)"/>
<path d="M18.2177 17.1132C13.299 13.8027 11.7485 10.7384 11.9969 3.76835C12.0123 3.33539 12.2324 2.93696 12.609 2.72288C13.6619 2.12448 16.0465 0.988275 18.9746 0.988281C21.8809 0.988287 24.2022 2.10761 25.2402 2.70941C25.6215 2.93047 25.8365 3.34163 25.8394 3.78235C25.8864 10.9477 24.3181 13.9661 19.7278 17.1083C19.2742 17.4188 18.6737 17.4201 18.2177 17.1132Z" fill="url(#paint6_linear_1328_13395)"/>
<g clip-path="url(#clip0_1328_13395)">
<path d="M15.928 8.08184L17.8906 10.0444L21.8158 6.11925" stroke="white" stroke-width="1.47194" stroke-linecap="round" stroke-linejoin="round"/>
</g>
<defs>
<linearGradient id="paint0_linear_1328_13395" x1="10.5926" y1="25.3828" x2="10.5926" y2="28.8908" gradientUnits="userSpaceOnUse">
<stop stop-color="#FBA5AE"/>
<stop offset="0.481" stop-color="#FA8A96"/>
<stop offset="1" stop-color="#F56E7C"/>
</linearGradient>
<linearGradient id="paint1_linear_1328_13395" x1="12.5474" y1="25.3826" x2="14.3127" y2="3.05672" gradientUnits="userSpaceOnUse">
<stop stop-color="#FFAE51"/>
<stop offset="1" stop-color="#FFD7A9"/>
</linearGradient>
<linearGradient id="paint2_linear_1328_13395" x1="13.0662" y1="25.3941" x2="14.1022" y2="10.4419" gradientUnits="userSpaceOnUse">
<stop stop-color="#FFAE51"/>
<stop offset="1" stop-color="#FFD7A9"/>
</linearGradient>
<linearGradient id="paint3_linear_1328_13395" x1="5.23323" y1="0" x2="5.23323" y2="3.50799" gradientUnits="userSpaceOnUse">
<stop stop-color="#FBA5AE"/>
<stop offset="0.481" stop-color="#FA8A96"/>
<stop offset="1" stop-color="#F56E7C"/>
</linearGradient>
<linearGradient id="paint4_linear_1328_13395" x1="25.4292" y1="25.3826" x2="23.6639" y2="3.05672" gradientUnits="userSpaceOnUse">
<stop stop-color="#FFAE51"/>
<stop offset="1" stop-color="#FFD7A9"/>
</linearGradient>
<linearGradient id="paint5_linear_1328_13395" x1="24.9103" y1="25.3941" x2="23.8744" y2="10.4419" gradientUnits="userSpaceOnUse">
<stop stop-color="#FFAE51"/>
<stop offset="1" stop-color="#FFD7A9"/>
</linearGradient>
<linearGradient id="paint6_linear_1328_13395" x1="18.9061" y1="0.988281" x2="18.9061" y2="17.6081" gradientUnits="userSpaceOnUse">
<stop stop-color="#F97583"/>
<stop offset="0.51" stop-color="#FA8A96"/>
<stop offset="1" stop-color="#FBA5AE"/>
</linearGradient>
<clipPath id="clip0_1328_13395">
<rect x="14.9346" y="4.15674" width="7.93007" height="7.93007" rx="1.65573" fill="white"/>
</clipPath>
</defs>
</svg>
