<svg width="36" height="35" viewBox="0 0 36 35" fill="none" xmlns="http://www.w3.org/2000/svg">
<path fill-rule="evenodd" clip-rule="evenodd" d="M17.9364 6.25537C11.4148 6.25537 6.12793 11.8392 6.12793 18.7273V30.2554H29.745V18.7273C29.745 11.8392 24.4581 6.25537 17.9364 6.25537Z" fill="url(#paint0_linear_1224_28691)"/>
<rect x="4.34082" y="29.8721" width="27.1915" height="4.21277" rx="1.02128" fill="url(#paint1_linear_1224_28691)"/>
<path d="M13.7073 21.2864C13.6786 21.062 13.6182 20.878 13.5261 20.7342C13.4226 20.5789 13.2932 20.4667 13.1379 20.3977C12.9883 20.3229 12.7956 20.2855 12.5598 20.2855C12.1686 20.2855 11.8954 20.3689 11.7401 20.5357C11.5905 20.6853 11.5158 20.901 11.5158 21.1828C11.5158 21.3439 11.5388 21.4762 11.5848 21.5797C11.6308 21.6775 11.6998 21.7581 11.7919 21.8213C11.9299 21.9191 12.1571 21.9824 12.4735 22.0112C12.7956 22.0399 13.066 22.0859 13.2845 22.1492C13.5089 22.2067 13.7045 22.2873 13.8713 22.3908C14.2912 22.6554 14.5011 23.0696 14.5011 23.6333C14.5011 23.8518 14.458 24.0589 14.3717 24.2545C14.2854 24.4501 14.1646 24.6255 14.0093 24.7808C13.8252 24.9591 13.6067 25.0914 13.3536 25.1777C13.1062 25.264 12.8474 25.3071 12.577 25.3071C11.9673 25.3071 11.4812 25.1346 11.1189 24.7894C10.8082 24.4788 10.6213 24.0647 10.558 23.547L10.5753 23.5384H11.3346C11.3806 23.8432 11.4841 24.0704 11.6452 24.22C11.8695 24.4271 12.1715 24.5306 12.5511 24.5306C12.9135 24.5306 13.2011 24.4472 13.414 24.2804C13.6268 24.1136 13.7332 23.8979 13.7332 23.6333C13.7332 23.5125 13.716 23.4089 13.6814 23.3226C13.6527 23.2306 13.5952 23.1501 13.5089 23.0811C13.3133 22.9315 12.948 22.8366 12.4131 22.7963C11.8666 22.7503 11.4525 22.5921 11.1706 22.3218C10.8888 22.0514 10.7478 21.6718 10.7478 21.1828C10.7478 20.6882 10.9003 20.2884 11.2051 19.9835C11.5273 19.6614 11.9759 19.5003 12.5511 19.5003C13.1494 19.5003 13.6153 19.6815 13.9489 20.0439C14.2423 20.3603 14.4206 20.7744 14.4839 21.2864H13.7073ZM17.897 25.2985C17.5059 25.2985 17.1349 25.2266 16.784 25.0828C16.4388 24.9333 16.134 24.7233 15.8694 24.4529C15.6048 24.1883 15.3977 23.8806 15.2481 23.5297C15.0986 23.1731 15.0238 22.7992 15.0238 22.4081C15.0238 22.0169 15.0957 21.6488 15.2395 21.3036C15.3891 20.9528 15.599 20.6421 15.8694 20.3718C16.134 20.1072 16.4388 19.9001 16.784 19.7506C17.1349 19.601 17.5059 19.5262 17.897 19.5262C18.2882 19.5262 18.6592 19.601 19.0101 19.7506C19.3609 19.9001 19.6687 20.1072 19.9333 20.3718C20.1979 20.6364 20.405 20.9441 20.5545 21.295C20.7041 21.6459 20.7788 22.0169 20.7788 22.4081C20.7788 22.7992 20.7041 23.1731 20.5545 23.5297C20.405 23.8806 20.1979 24.1883 19.9333 24.4529C19.6687 24.7175 19.3609 24.9246 19.0101 25.0742C18.6592 25.2237 18.2882 25.2985 17.897 25.2985ZM17.897 20.3114C17.6152 20.3114 17.3448 20.366 17.086 20.4753C16.8329 20.5789 16.6085 20.7284 16.413 20.924C16.2174 21.1196 16.0649 21.3468 15.9557 21.6056C15.8521 21.8587 15.8004 22.1262 15.8004 22.4081C15.8004 22.6957 15.855 22.9718 15.9643 23.2364C16.0736 23.4952 16.2231 23.7195 16.413 23.9094C16.6085 24.1049 16.8329 24.2574 17.086 24.3667C17.3448 24.4702 17.6152 24.522 17.897 24.522C18.1789 24.522 18.4463 24.4702 18.6994 24.3667C18.9583 24.2574 19.1855 24.1049 19.3811 23.9094C19.5709 23.7195 19.7204 23.4952 19.8297 23.2364C19.939 22.9718 19.9937 22.6957 19.9937 22.4081C19.9937 22.1262 19.939 21.8587 19.8297 21.6056C19.7262 21.3468 19.5766 21.1196 19.3811 20.924C19.1855 20.7284 18.9583 20.5789 18.6994 20.4753C18.4463 20.366 18.1789 20.3114 17.897 20.3114ZM24.4505 21.2864C24.4217 21.062 24.3613 20.878 24.2693 20.7342C24.1658 20.5789 24.0363 20.4667 23.881 20.3977C23.7315 20.3229 23.5388 20.2855 23.3029 20.2855C22.9118 20.2855 22.6386 20.3689 22.4833 20.5357C22.3337 20.6853 22.2589 20.901 22.2589 21.1828C22.2589 21.3439 22.2819 21.4762 22.328 21.5797C22.374 21.6775 22.443 21.7581 22.535 21.8213C22.6731 21.9191 22.9003 21.9824 23.2167 22.0112C23.5388 22.0399 23.8091 22.0859 24.0277 22.1492C24.252 22.2067 24.4476 22.2873 24.6144 22.3908C25.0343 22.6554 25.2443 23.0696 25.2443 23.6333C25.2443 23.8518 25.2012 24.0589 25.1149 24.2545C25.0286 24.4501 24.9078 24.6255 24.7525 24.7808C24.5684 24.9591 24.3498 25.0914 24.0967 25.1777C23.8494 25.264 23.5905 25.3071 23.3202 25.3071C22.7105 25.3071 22.2244 25.1346 21.862 24.7894C21.5514 24.4788 21.3645 24.0647 21.3012 23.547L21.3184 23.5384H22.0777C22.1237 23.8432 22.2273 24.0704 22.3883 24.22C22.6127 24.4271 22.9147 24.5306 23.2943 24.5306C23.6567 24.5306 23.9443 24.4472 24.1571 24.2804C24.37 24.1136 24.4764 23.8979 24.4764 23.6333C24.4764 23.5125 24.4591 23.4089 24.4246 23.3226C24.3959 23.2306 24.3383 23.1501 24.252 23.0811C24.0565 22.9315 23.6912 22.8366 23.1563 22.7963C22.6098 22.7503 22.1957 22.5921 21.9138 22.3218C21.6319 22.0514 21.491 21.6718 21.491 21.1828C21.491 20.6882 21.6434 20.2884 21.9483 19.9835C22.2704 19.6614 22.7191 19.5003 23.2943 19.5003C23.8925 19.5003 24.3585 19.6815 24.6921 20.0439C24.9854 20.3603 25.1638 20.7744 25.227 21.2864H24.4505Z" fill="white"/>
<path fill-rule="evenodd" clip-rule="evenodd" d="M17.9 0C17.3551 0 16.9134 0.441713 16.9134 0.986593V3.37961C16.9134 3.92449 17.3551 4.3662 17.9 4.3662C18.4449 4.3662 18.8866 3.92449 18.8866 3.37961V0.986593C18.8866 0.441713 18.4449 0 17.9 0ZM27.9871 3.9788C28.264 3.51451 28.1059 2.92432 27.634 2.66058C27.1622 2.39683 26.5552 2.5594 26.2783 3.02369L25.0259 5.1236C24.749 5.58789 24.9071 6.17807 25.379 6.44182C25.8508 6.70556 26.4578 6.54299 26.7347 6.07871L27.9871 3.9788ZM8.36581 2.75695C7.89393 3.02069 7.73586 3.61088 8.01275 4.07517L9.2651 6.17507C9.542 6.63936 10.149 6.80193 10.6209 6.53819C11.0928 6.27444 11.2508 5.68426 10.9739 5.21997L9.72158 3.12006C9.44469 2.65577 8.83769 2.4932 8.36581 2.75695ZM2.25004 10.5838C1.78575 10.3243 1.63022 9.74358 1.90266 9.28676C2.1751 8.82994 2.77234 8.66998 3.23663 8.92948L5.46118 10.1728C5.92548 10.4323 6.081 11.013 5.80856 11.4699C5.53612 11.9267 4.93888 12.0866 4.47459 11.8271L2.25004 10.5838ZM0.955106 19.1025C0.427615 19.1025 0 18.6749 0 18.1474C0 17.6199 0.427616 17.1923 0.955107 17.1923H3.55504C4.08253 17.1923 4.51014 17.6199 4.51014 18.1474C4.51014 18.6749 4.08253 19.1025 3.55503 19.1025H0.955106ZM35.0449 19.0064C35.5724 19.0064 36 18.5788 36 18.0513C36 17.5238 35.5724 17.0962 35.0449 17.0962H32.445C31.9175 17.0962 31.4899 17.5238 31.4899 18.0513C31.4899 18.5788 31.9175 19.0064 32.445 19.0064H35.0449ZM34.0973 9.19064C34.3697 9.64746 34.2142 10.2282 33.7499 10.4877L31.5253 11.731C31.0611 11.9905 30.4638 11.8306 30.1914 11.3737C29.9189 10.9169 30.0745 10.3362 30.5388 10.0767L32.7633 8.83337C33.2276 8.57386 33.8248 8.73382 34.0973 9.19064Z" fill="url(#paint2_linear_1224_28691)"/>
<defs>
<linearGradient id="paint0_linear_1224_28691" x1="18.8301" y1="34.4681" x2="17.9569" y2="5.25829" gradientUnits="userSpaceOnUse">
<stop stop-color="#FF4041"/>
<stop offset="1" stop-color="#FFA584"/>
</linearGradient>
<linearGradient id="paint1_linear_1224_28691" x1="15.2309" y1="35.5529" x2="15.6679" y2="27.7979" gradientUnits="userSpaceOnUse">
<stop stop-color="#FFA43D"/>
<stop offset="1" stop-color="#FFEC6A"/>
</linearGradient>
<linearGradient id="paint2_linear_1224_28691" x1="18" y1="19.1465" x2="18.6347" y2="-1.22109" gradientUnits="userSpaceOnUse">
<stop stop-color="#FFC83D"/>
<stop offset="1" stop-color="#FFEC6A"/>
</linearGradient>
</defs>
</svg>
