<svg width="36" height="36" viewBox="0 0 36 36" fill="none" xmlns="http://www.w3.org/2000/svg">
<path fill-rule="evenodd" clip-rule="evenodd" d="M10.2882 0C4.6062 0 0 4.6062 0 10.2882V25.7118C0 31.3938 4.6062 36 10.2882 36H25.7118C31.3938 36 36 31.3938 36 25.7118V10.2882C36 4.6062 31.3938 0 25.7118 0H10.2882ZM9.79419 25.3459C9.65845 25.7283 9.29665 25.9838 8.8909 25.9838C8.35407 25.9838 7.9492 25.5534 7.93209 25.059C7.94899 25.5536 8.3539 25.9842 8.89088 25.9842C9.29664 25.9842 9.65843 25.7287 9.79417 25.3463L11.1911 21.4113H11.1919H17.72H17.7209L19.1178 25.3463C19.2535 25.7287 19.6153 25.9842 20.021 25.9842C20.5292 25.9842 20.9191 25.5985 20.9738 25.138C20.9189 25.5983 20.5291 25.9838 20.0211 25.9838C19.6153 25.9838 19.2535 25.7283 19.1178 25.3459L17.7209 21.4109H17.7201H11.1919H11.1911L9.79419 25.3459ZM14.5402 12.4508L17.1052 19.6764H17.105L14.5401 12.4512C14.5275 12.4156 14.4938 12.3918 14.456 12.3918C14.4182 12.3918 14.3844 12.4156 14.3718 12.4512L11.8069 19.6764H11.8068L14.3718 12.4508C14.3845 12.4152 14.4182 12.3914 14.456 12.3914C14.4938 12.3914 14.5275 12.4152 14.5402 12.4508ZM10.2841 25.5202L11.5581 21.9312H17.3538L18.6279 25.5202C18.8372 26.11 19.3952 26.504 20.021 26.504C21.0489 26.504 21.7631 25.481 21.4088 24.5161L16.301 10.6054C16.0169 9.8317 15.2802 9.31743 14.456 9.31743C13.6317 9.31743 12.8951 9.8317 12.611 10.6054L7.50313 24.5161C7.14883 25.481 7.863 26.504 8.89088 26.504C9.51669 26.504 10.0747 26.11 10.2841 25.5202ZM12.5429 19.157L14.456 13.768L16.369 19.157H12.5429ZM26.4417 10.2072C26.617 10.3836 26.7253 10.6266 26.7253 10.8949V25.0585C26.7253 25.5974 26.2884 26.0342 25.7495 26.0342C25.4792 26.0342 25.2345 25.9242 25.0577 25.7466C25.2345 25.9245 25.4794 26.0346 25.7499 26.0346C26.2888 26.0346 26.7257 25.5978 26.7257 25.0589V10.8953C26.7257 10.6268 26.6172 10.3837 26.4417 10.2072ZM27.2455 25.0589V10.8953C27.2455 10.0693 26.5759 9.39975 25.7499 9.39975C24.924 9.39975 24.2544 10.0693 24.2544 10.8953V25.0589C24.2544 25.8849 24.924 26.5544 25.7499 26.5544C26.5759 26.5544 27.2455 25.8849 27.2455 25.0589Z" fill="url(#paint0_linear_1927_13918)"/>
<defs>
<linearGradient id="paint0_linear_1927_13918" x1="1.8" y1="3.89189" x2="38.8924" y2="23.7683" gradientUnits="userSpaceOnUse">
<stop stop-color="#F1BEC3"/>
<stop offset="0.505" stop-color="#F598A2"/>
<stop offset="0.96" stop-color="#FA6777"/>
</linearGradient>
</defs>
</svg>
