<svg width="37" height="36" viewBox="0 0 37 36" fill="none" xmlns="http://www.w3.org/2000/svg">
<rect x="29.1426" y="14.6216" width="4.80407" height="3.12265" rx="1.20102" fill="#FCFCFC"/>
<rect x="2" y="14.6216" width="4.80407" height="3.12265" rx="1.20102" fill="#FCFCFC"/>
<rect x="7.76465" y="31.1958" width="5.28448" height="4.80407" rx="1.20102" fill="url(#paint0_linear_1200_7511)"/>
<rect x="22.8975" y="30.7153" width="5.28448" height="5.28448" rx="1.20102" fill="url(#paint1_linear_1200_7511)"/>
<ellipse cx="18.2135" cy="6.22177" rx="2.52214" ry="3.12265" fill="url(#paint2_linear_1200_7511)"/>
<rect x="2" y="5.8374" width="32.1081" height="27.2432" rx="7.44632" fill="url(#paint3_linear_1200_7511)"/>
<g filter="url(#filter0_d_1200_7511)">
<rect x="3.94629" y="7.78369" width="28.2162" height="16.8197" rx="5.35396" fill="#E5E0FD"/>
<rect x="3.94629" y="7.78369" width="28.2162" height="15.6423" rx="5.35396" fill="#FAFAFA"/>
</g>
<path fill-rule="evenodd" clip-rule="evenodd" d="M15.2823 0.130383C14.9563 0.358656 14.877 0.80799 15.1053 1.134L15.9696 2.36839C16.1979 2.6944 16.6472 2.77363 16.9732 2.54536C17.2993 2.31708 17.3785 1.86775 17.1502 1.54174L16.2859 0.307348C16.0576 -0.0186608 15.6083 -0.0978906 15.2823 0.130383ZM12.0889 4.54069C12.0889 4.93867 12.4115 5.2613 12.8095 5.2613H14.3164C14.7144 5.2613 15.037 4.93867 15.037 4.54069C15.037 4.1427 14.7144 3.82008 14.3164 3.82008H12.8095C12.4115 3.82008 12.0889 4.1427 12.0889 4.54069ZM20.3324 0.326829C20.5607 0.000821071 21.01 -0.078408 21.336 0.149865C21.662 0.378139 21.7413 0.827473 21.513 1.15348L20.6487 2.38788C20.4204 2.71388 19.9711 2.79311 19.645 2.56484C19.319 2.33657 19.2398 1.88723 19.4681 1.56122L20.3324 0.326829ZM24.1647 4.54069C24.1647 4.93867 23.8421 5.2613 23.4441 5.2613H21.9372C21.5392 5.2613 21.2165 4.93867 21.2165 4.54069C21.2165 4.1427 21.5392 3.82008 21.9372 3.82008H23.4441C23.8421 3.82008 24.1647 4.1427 24.1647 4.54069Z" fill="url(#paint4_linear_1200_7511)"/>
<rect x="7.76465" y="27.5928" width="4.80407" height="3.12265" rx="1.20102" fill="url(#paint5_linear_1200_7511)"/>
<rect x="22.8975" y="27.5928" width="4.80407" height="3.12265" rx="1.20102" fill="url(#paint6_linear_1200_7511)"/>
<path fill-rule="evenodd" clip-rule="evenodd" d="M12.4989 18.2302C12.2413 17.8753 12.274 17.3268 12.572 17.005C12.87 16.6833 13.3204 16.7102 13.578 17.0651L17.8009 22.8828L22.0237 17.0651C22.2813 16.7102 22.7317 16.6833 23.0297 17.005C23.3277 17.3268 23.3604 17.8753 23.1028 18.2302L19.3114 23.4535H16.2903L12.4989 18.2302Z" fill="url(#paint7_linear_1200_7511)"/>
<defs>
<filter id="filter0_d_1200_7511" x="0.0543964" y="3.8918" width="35.9996" height="24.6036" filterUnits="userSpaceOnUse" color-interpolation-filters="sRGB">
<feFlood flood-opacity="0" result="BackgroundImageFix"/>
<feColorMatrix in="SourceAlpha" type="matrix" values="0 0 0 0 0 0 0 0 0 0 0 0 0 0 0 0 0 0 127 0" result="hardAlpha"/>
<feOffset/>
<feGaussianBlur stdDeviation="1.94595"/>
<feComposite in2="hardAlpha" operator="out"/>
<feColorMatrix type="matrix" values="0 0 0 0 0 0 0 0 0 0 0 0 0 0 0 0 0 0 0.25 0"/>
<feBlend mode="normal" in2="BackgroundImageFix" result="effect1_dropShadow_1200_7511"/>
<feBlend mode="normal" in="SourceGraphic" in2="effect1_dropShadow_1200_7511" result="shape"/>
</filter>
<linearGradient id="paint0_linear_1200_7511" x1="10.4069" y1="31.1958" x2="10.4069" y2="35.9999" gradientUnits="userSpaceOnUse">
<stop stop-color="#847BF7"/>
<stop offset="1" stop-color="#5E39D9"/>
</linearGradient>
<linearGradient id="paint1_linear_1200_7511" x1="25.5397" y1="30.7153" x2="25.5397" y2="35.9998" gradientUnits="userSpaceOnUse">
<stop stop-color="#847BF7"/>
<stop offset="1" stop-color="#5E39D9"/>
</linearGradient>
<linearGradient id="paint2_linear_1200_7511" x1="18.2135" y1="9.35879" x2="18.6956" y2="2.72849" gradientUnits="userSpaceOnUse">
<stop stop-color="#B32439"/>
<stop offset="1" stop-color="#FF7287"/>
</linearGradient>
<linearGradient id="paint3_linear_1200_7511" x1="18" y1="6" x2="18" y2="34" gradientUnits="userSpaceOnUse">
<stop stop-color="#D3B5FF"/>
<stop offset="1" stop-color="#A028F4"/>
</linearGradient>
<linearGradient id="paint4_linear_1200_7511" x1="18.4543" y1="7.28349" x2="17.1254" y2="1.12718" gradientUnits="userSpaceOnUse">
<stop stop-color="#FFC83D"/>
<stop offset="1" stop-color="#FFEC6A"/>
</linearGradient>
<linearGradient id="paint5_linear_1200_7511" x1="10.1667" y1="30.7226" x2="10.2937" y2="27.3948" gradientUnits="userSpaceOnUse">
<stop stop-color="#FFC83D"/>
<stop offset="1" stop-color="#FFEC6A"/>
</linearGradient>
<linearGradient id="paint6_linear_1200_7511" x1="25.2995" y1="30.7226" x2="25.4265" y2="27.3948" gradientUnits="userSpaceOnUse">
<stop stop-color="#FFC83D"/>
<stop offset="1" stop-color="#FFEC6A"/>
</linearGradient>
<linearGradient id="paint7_linear_1200_7511" x1="17.8009" y1="16.7803" x2="17.8009" y2="23.4535" gradientUnits="userSpaceOnUse">
<stop stop-color="#4989FF"/>
<stop offset="1" stop-color="#4130EE"/>
</linearGradient>
</defs>
</svg>
