<svg width="36" height="34" viewBox="0 0 36 34" fill="none" xmlns="http://www.w3.org/2000/svg">
<path d="M10.4161 19.398C10.3217 19.3033 10.2745 19.256 10.2569 19.2014C10.2414 19.1534 10.2415 19.1018 10.2572 19.0539C10.275 18.9994 10.3224 18.9522 10.4171 18.8578L27.5272 1.80857C28.118 1.21985 28.4135 0.925489 28.7994 0.866575C29.0955 0.821365 29.5099 0.936004 29.7407 1.12701C30.0414 1.37592 30.1253 1.70799 30.2929 2.37214C30.6457 3.76926 30.6845 5.35794 30.392 7.602C30.2409 8.76134 30.1653 9.34101 29.8962 10.1741C29.6879 10.819 29.2768 11.7053 28.9189 12.2809C28.4567 13.0244 27.925 13.6077 26.8617 14.7745L17.0746 25.5131C16.9806 25.6163 16.9335 25.6679 16.8779 25.688C16.829 25.7056 16.7757 25.7068 16.726 25.6914C16.6695 25.6738 16.6202 25.6243 16.5217 25.5254L10.4161 19.398Z" fill="url(#paint0_linear_1371_14337)"/>
<path d="M9.26562 20.1753L13.1723 24.1535L5.8961 31.299C4.79755 32.3778 3.03246 32.3618 1.95365 31.2633C0.874835 30.1647 0.890832 28.3996 1.98938 27.3208L9.26562 20.1753Z" fill="url(#paint1_linear_1371_14337)"/>
<path fill-rule="evenodd" clip-rule="evenodd" d="M32.6275 17.1331C32.5044 16.9028 32.1743 16.9028 32.0512 17.1331L30.3371 20.3406C30.1261 20.6914 30.0049 21.1023 30.0049 21.5414C30.0049 22.8304 31.0498 23.8754 32.3388 23.8754C33.6278 23.8754 34.6728 22.8304 34.6728 21.5414C34.6728 21.1087 34.555 20.7034 34.3498 20.356C34.3486 20.3537 34.3475 20.3515 34.3463 20.3492L32.6275 17.1331Z" fill="url(#paint2_linear_1371_14337)"/>
<path fill-rule="evenodd" clip-rule="evenodd" d="M25.2004 23.3708C25.043 23.0763 24.6208 23.0763 24.4634 23.3708L22.2657 27.4832C22.264 27.4864 22.2624 27.4895 22.2608 27.4927C21.9983 27.937 21.8477 28.4552 21.8477 29.0086C21.8477 30.6569 23.1838 31.993 24.8321 31.993C26.4803 31.993 27.8165 30.6569 27.8165 29.0086C27.8165 28.4535 27.6649 27.9337 27.4009 27.4885C27.4 27.4868 27.3991 27.485 27.3981 27.4832L25.2004 23.3708Z" fill="url(#paint3_linear_1371_14337)"/>
<defs>
<linearGradient id="paint0_linear_1371_14337" x1="33.3094" y1="7.71394" x2="10.3857" y2="10.4501" gradientUnits="userSpaceOnUse">
<stop stop-color="#49C2FF"/>
<stop offset="1" stop-color="#4130EE"/>
</linearGradient>
<linearGradient id="paint1_linear_1371_14337" x1="15.2906" y1="18.0455" x2="5.73905" y2="31.7937" gradientUnits="userSpaceOnUse">
<stop stop-color="#181818"/>
<stop offset="1" stop-color="#454545"/>
</linearGradient>
<linearGradient id="paint2_linear_1371_14337" x1="32.3389" y1="23.8914" x2="32.976" y2="16.5667" gradientUnits="userSpaceOnUse">
<stop stop-color="#FF0026"/>
<stop offset="1" stop-color="#FF7287"/>
</linearGradient>
<linearGradient id="paint3_linear_1371_14337" x1="24.8321" y1="32.0132" x2="25.647" y2="22.6464" gradientUnits="userSpaceOnUse">
<stop stop-color="#FF0026"/>
<stop offset="1" stop-color="#FF7287"/>
</linearGradient>
</defs>
</svg>
