<svg width="31" height="36" viewBox="0 0 31 36" fill="none" xmlns="http://www.w3.org/2000/svg">
<path fill-rule="evenodd" clip-rule="evenodd" d="M27.5783 24.9054C29.6221 22.2895 30.84 18.997 30.84 15.42C30.84 6.90377 23.9362 0 15.42 0C6.90377 0 0 6.90377 0 15.42C0 18.2139 0.743048 20.8343 2.04231 23.0943L2.00452 23.13C5.50759 28.5334 8.3267 31.0943 12.2433 34.6522L12.3804 34.7767C14.1004 36.3393 16.7261 36.4333 18.4676 34.8948C22.5318 31.3043 25.1616 28.3426 27.5783 24.9054Z" fill="url(#paint0_linear_1198_8760)"/>
<g filter="url(#filter0_d_1198_8760)">
<path d="M21.2799 15.2659C21.2799 18.417 18.7256 20.9714 15.5745 20.9714C12.4235 20.9714 9.86914 18.417 9.86914 15.2659C9.86914 12.1149 12.4235 9.56055 15.5745 9.56055C18.7256 9.56055 21.2799 12.1149 21.2799 15.2659Z" fill="white"/>
</g>
<defs>
<filter id="filter0_d_1198_8760" x="7.8152" y="7.69678" width="15.519" height="15.5185" filterUnits="userSpaceOnUse" color-interpolation-filters="sRGB">
<feFlood flood-opacity="0" result="BackgroundImageFix"/>
<feColorMatrix in="SourceAlpha" type="matrix" values="0 0 0 0 0 0 0 0 0 0 0 0 0 0 0 0 0 0 127 0" result="hardAlpha"/>
<feOffset dy="0.19018"/>
<feGaussianBlur stdDeviation="1.02697"/>
<feComposite in2="hardAlpha" operator="out"/>
<feColorMatrix type="matrix" values="0 0 0 0 0.798333 0 0 0 0 0.55564 0 0 0 0 0.0319333 0 0 0 0.8 0"/>
<feBlend mode="normal" in2="BackgroundImageFix" result="effect1_dropShadow_1198_8760"/>
<feBlend mode="normal" in="SourceGraphic" in2="effect1_dropShadow_1198_8760" result="shape"/>
</filter>
<linearGradient id="paint0_linear_1198_8760" x1="12.3513" y1="48.5455" x2="36.2634" y2="-7.78427" gradientUnits="userSpaceOnUse">
<stop stop-color="#FFA43D"/>
<stop offset="1" stop-color="#FFEC6A"/>
</linearGradient>
</defs>
</svg>
