<svg width="34" height="36" viewBox="0 0 34 36" fill="none" xmlns="http://www.w3.org/2000/svg">
<circle cx="15.2872" cy="31.9313" r="4.06849" fill="url(#paint0_linear_1328_13834)"/>
<path d="M0.196261 29.7331C0.443925 27.9491 0.962376 26.3749 2.19113 24.0568C2.36882 23.7216 2.47394 23.3427 2.49188 22.9637C3.20003 8.00812 6.46392 3.97184 15.2832 3.0226C15.4254 3.0073 15.5745 3.00527 15.7171 3.01657C24.5074 3.71316 28.2175 7.19374 28.492 23.4427C28.4981 23.8038 28.5811 24.1691 28.7404 24.4932C29.7019 26.4491 30.43 27.7667 30.758 29.8016C30.9616 31.0648 29.9679 32.1598 28.6945 32.2837C18.7446 33.2516 12.266 33.2435 2.32006 32.2879C1.01825 32.1628 0.0164318 31.0285 0.196261 29.7331Z" fill="url(#paint1_linear_1328_13834)"/>
<circle cx="15.7123" cy="2.71233" r="2.71233" fill="url(#paint2_linear_1328_13834)"/>
<rect x="20" y="16" width="13.4384" height="13.4384" rx="6.71918" fill="url(#paint3_linear_1328_13834)"/>
<g clip-path="url(#clip0_1328_13834)">
<path d="M24.7334 24.7119L28.6528 20.7925" stroke="white" stroke-width="1.14226" stroke-linecap="round"/>
<path d="M28.6533 24.7119L24.7339 20.7925" stroke="white" stroke-width="1.14226" stroke-linecap="round"/>
</g>
<defs>
<linearGradient id="paint0_linear_1328_13834" x1="14.4776" y1="38.8354" x2="19.3038" y2="25.5641" gradientUnits="userSpaceOnUse">
<stop stop-color="#FFA43D"/>
<stop offset="1" stop-color="#FFEC6A"/>
</linearGradient>
<linearGradient id="paint1_linear_1328_13834" x1="12.3935" y1="43.4641" x2="29.773" y2="-5.8208" gradientUnits="userSpaceOnUse">
<stop stop-color="#FFA43D"/>
<stop offset="1" stop-color="#FFEC6A"/>
</linearGradient>
<linearGradient id="paint2_linear_1328_13834" x1="15.1726" y1="7.31507" x2="18.39" y2="-1.53248" gradientUnits="userSpaceOnUse">
<stop stop-color="#FFA43D"/>
<stop offset="1" stop-color="#FFEC6A"/>
</linearGradient>
<linearGradient id="paint3_linear_1328_13834" x1="26.7192" y1="16" x2="26.7192" y2="29.4384" gradientUnits="userSpaceOnUse">
<stop stop-color="#FBA5AE"/>
<stop offset="0.49" stop-color="#FA8A96"/>
<stop offset="1" stop-color="#F97583"/>
</linearGradient>
<clipPath id="clip0_1328_13834">
<rect width="5.22603" height="5.22603" fill="white" transform="translate(24.1064 20.1064)"/>
</clipPath>
</defs>
</svg>
