<svg width="36" height="32" viewBox="0 0 36 32" fill="none" xmlns="http://www.w3.org/2000/svg">
<path d="M22.3905 5.46871C22.3905 2.46169 18.8579 0.845148 16.5824 2.81088L10.7356 7.86158C10.0977 8.41269 9.28275 8.71594 8.4397 8.71595L5.70759 8.71597C3.28294 8.71598 1.31738 10.6816 1.31738 13.1062V18.889C1.31738 21.3137 3.28296 23.2792 5.70762 23.2792H8.43976C9.28282 23.2792 10.0977 23.5825 10.7357 24.1336L16.5824 29.1842C18.8579 31.15 22.3905 29.5334 22.3905 26.5264V15.9976V5.46871Z" fill="#454545"/>
<path fill-rule="evenodd" clip-rule="evenodd" d="M21.0731 5.46851C21.0731 3.58912 18.8653 2.57878 17.4431 3.80736L11.5963 8.85807C10.7191 9.61584 9.59859 10.0328 8.4394 10.0328L5.70729 10.0328C4.01004 10.0329 2.63415 11.4088 2.63415 13.106V18.8888C2.63415 20.5861 4.01005 21.962 5.70731 21.962H8.43945C9.59865 21.962 10.7192 22.3789 11.5964 23.1367L17.443 28.1874C18.8653 29.4159 21.0731 28.4056 21.0731 26.5262V5.46851ZM15.7211 1.81399C18.85 -0.888887 23.7073 1.33386 23.7073 5.46851V26.5262C23.7073 30.6609 18.8499 32.8836 15.7211 30.1807L9.87443 25.1301C9.47569 24.7857 8.96636 24.5961 8.43945 24.5961H5.70731C2.55525 24.5961 0 22.0409 0 18.8888V13.106C0 9.95397 2.55523 7.39872 5.70727 7.39869L8.43938 7.39867C8.96629 7.39867 9.47561 7.20914 9.87434 6.86469L15.7211 1.81399Z" fill="#454545"/>
<path fill-rule="evenodd" clip-rule="evenodd" d="M26.8678 9.67729C27.4493 9.24033 28.2749 9.35752 28.7119 9.93905C29.9801 11.6268 30.7321 13.7267 30.7321 15.9985C30.7321 18.2703 29.9801 20.3703 28.7119 22.058C28.2749 22.6395 27.4493 22.7567 26.8678 22.3198C26.2862 21.8828 26.169 21.0572 26.606 20.4756C27.5432 19.2284 28.098 17.6801 28.098 15.9985C28.098 14.317 27.5432 12.7687 26.606 11.5214C26.169 10.9399 26.2862 10.1142 26.8678 9.67729Z" fill="#454545"/>
<path fill-rule="evenodd" clip-rule="evenodd" d="M30.3795 4.40922C30.961 3.97226 31.7867 4.08945 32.2236 4.67098C34.5945 7.82623 35.9999 11.7503 35.9999 15.9988C35.9999 20.2472 34.5945 24.1713 32.2236 27.3265C31.7867 27.9081 30.961 28.0253 30.3795 27.5883C29.7979 27.1513 29.6808 26.3257 30.1177 25.7442C32.1576 23.0294 33.3658 19.657 33.3658 15.9988C33.3658 12.3405 32.1576 8.96811 30.1177 6.25336C29.6808 5.67183 29.7979 4.84618 30.3795 4.40922Z" fill="#454545"/>
</svg>
