<svg width="36" height="32" viewBox="0 0 36 32" fill="none" xmlns="http://www.w3.org/2000/svg">
<path fill-rule="evenodd" clip-rule="evenodd" d="M7.12161 6.55C3.18846 6.55 0 9.73846 0 13.6716V22.75C0 27.7206 4.02944 31.75 9 31.75H27C31.9706 31.75 36 27.7206 36 22.75V13.6716C36 9.73846 32.8115 6.55 28.8784 6.55C27.7389 6.55 26.709 5.87089 26.2601 4.82349L25.7026 3.52284C24.8517 1.53734 22.8994 0.25 20.7393 0.25H18H15.2607C13.1006 0.25 11.1483 1.53734 10.2974 3.52284L9.73993 4.82349C9.29105 5.87089 8.26115 6.55 7.12161 6.55ZM14.6194 11.2059C13.4002 11.8679 12.3878 12.8541 11.6942 14.0555C11.6522 14.1283 11.6002 14.1917 11.541 14.245L14.2158 13.6275C14.6346 13.5308 15.0524 13.7919 15.1491 14.2107C15.2458 14.6295 14.9847 15.0473 14.5659 15.144L11.2876 15.9008C10.3105 16.1264 9.33551 15.5172 9.10993 14.54L8.3531 11.2617C8.25642 10.843 8.51753 10.4251 8.9363 10.3284C9.35506 10.2318 9.77291 10.4929 9.86959 10.9116L10.3961 13.1922C11.2316 11.7807 12.4342 10.6213 13.8768 9.83811C15.3482 9.03918 17.0119 8.66272 18.684 8.75035C20.3561 8.83798 21.9713 9.38628 23.3512 10.3346C24.7311 11.283 25.8218 12.5945 26.5028 14.1241C26.6776 14.5167 26.5011 14.9767 26.1084 15.1515C25.7158 15.3263 25.2558 15.1497 25.081 14.7571C24.5167 13.4897 23.613 12.4031 22.4696 11.6173C21.3263 10.8315 19.988 10.3772 18.6025 10.3046C17.2171 10.232 15.8386 10.5439 14.6194 11.2059ZM21.7984 24.4262C23.0176 23.7642 24.0299 22.778 24.7236 21.5765C24.7656 21.5038 24.8176 21.4404 24.8768 21.3871L22.202 22.0046C21.7832 22.1013 21.3653 21.8402 21.2687 21.4214C21.172 21.0026 21.4331 20.5848 21.8519 20.4881L25.1301 19.7313C26.1073 19.5057 27.0823 20.1149 27.3078 21.0921L28.0647 24.3704C28.1613 24.7891 27.9002 25.207 27.4815 25.3036C27.0627 25.4003 26.6449 25.1392 26.5482 24.7205L26.0217 22.4399C25.1862 23.8514 23.9835 25.0107 22.541 25.794C21.0695 26.5929 19.4058 26.9694 17.7338 26.8817C16.0617 26.7941 14.4465 26.2458 13.0666 25.2974C11.6867 24.3491 10.596 23.0376 9.91494 21.508C9.74014 21.1154 9.91671 20.6554 10.3093 20.4806C10.702 20.3058 11.162 20.4823 11.3368 20.875C11.901 22.1423 12.8048 23.229 13.9481 24.0148C15.0915 24.8006 16.4298 25.2549 17.8152 25.3275C19.2006 25.4001 20.5792 25.0882 21.7984 24.4262Z" fill="#454545"/>
</svg>
