<svg width="36" height="36" viewBox="0 0 36 36" fill="none" xmlns="http://www.w3.org/2000/svg">
<path fill-rule="evenodd" clip-rule="evenodd" d="M0 18.0005C0 27.9416 8.05887 36.0005 18 36.0005C27.9411 36.0005 36 27.9416 36 18.0005C36 8.05936 27.9411 0.000488281 18 0.000488281C8.05887 0.000488281 0 8.05936 0 18.0005ZM18 8.50049C18.8284 8.50049 19.5 9.17206 19.5 10.0005V18.8205C19.4996 19.2182 19.3414 19.5995 19.06 19.8805L13.3 25.6205C13.0214 25.9064 12.6392 26.0676 12.24 26.0676C11.8408 26.0676 11.4586 25.9064 11.18 25.6205C10.5951 25.0349 10.5951 24.0861 11.18 23.5005L16.5 18.2005V10.0005C16.5 9.17206 17.1716 8.50049 18 8.50049Z" fill="#454545"/>
</svg>
