<svg width="36" height="30" viewBox="0 0 36 30" fill="none" xmlns="http://www.w3.org/2000/svg">
<path fill-rule="evenodd" clip-rule="evenodd" d="M11.5496 10.2369C9.32128 9.05596 6.75719 11.9992 8.80883 14.1945C9.1594 14.5697 9.13949 15.158 8.76437 15.5085C8.38925 15.8591 7.80097 15.8392 7.4504 15.4641C4.03356 11.8079 8.25048 6.38421 12.4203 8.59403C12.8739 8.83445 13.0468 9.39711 12.8064 9.85078C12.5659 10.3044 12.0033 10.4773 11.5496 10.2369Z" fill="#454545"/>
<path fill-rule="evenodd" clip-rule="evenodd" d="M10.0184 4.63454C4.0106 3.19839 -0.389425 9.44498 3.08459 14.7896C3.36441 15.2201 3.24227 15.7959 2.81178 16.0757C2.3813 16.3555 1.80549 16.2334 1.52567 15.8029C-2.82032 9.1168 2.73236 0.981138 10.4506 2.82618C10.95 2.94556 11.2581 3.44714 11.1387 3.9465C11.0193 4.44587 10.5177 4.75391 10.0184 4.63454Z" fill="#454545"/>
<mask id="path-3-inside-1_1949_61082" fill="white">
<path fill-rule="evenodd" clip-rule="evenodd" d="M11.7176 19.1342L11.2827 18.7392C10.6518 18.1663 10.6518 17.1744 11.2827 16.6014L14.1166 14.0278C14.1428 14.0039 14.1695 13.9813 14.1966 13.9599V12.4729C14.1966 9.89445 16.2869 7.8042 18.8653 7.8042H23.0476L11.7176 19.1342ZM14.9812 25.268C15.8185 26.5206 17.2456 27.3454 18.8653 27.3454H31.3313C33.9097 27.3454 36 25.2551 36 22.6767V12.4729C36 10.2396 34.4318 8.37246 32.3365 7.91269L25.7531 14.4961H30.9294C31.4611 14.4961 31.892 14.9271 31.892 15.4587C31.892 15.9904 31.4611 16.4213 30.9294 16.4213H23.8278L21.1793 19.0698H25.7313C26.2629 19.0698 26.6939 19.5008 26.6939 20.0324C26.6939 20.5641 26.2629 20.9951 25.7313 20.9951H20.0518C19.828 20.9951 19.622 20.9187 19.4586 20.7906L14.9812 25.268ZM21.0381 16.4213L14.2291 23.2303C14.2076 23.0488 14.1966 22.864 14.1966 22.6767V21.5942L19.5258 16.265C19.677 16.3639 19.8577 16.4213 20.0518 16.4213H21.0381ZM22.9633 14.4961L29.6552 7.8042H27.9866L21.2947 14.4961H22.9633Z"/>
</mask>
<path fill-rule="evenodd" clip-rule="evenodd" d="M11.7176 19.1342L11.2827 18.7392C10.6518 18.1663 10.6518 17.1744 11.2827 16.6014L14.1166 14.0278C14.1428 14.0039 14.1695 13.9813 14.1966 13.9599V12.4729C14.1966 9.89445 16.2869 7.8042 18.8653 7.8042H23.0476L11.7176 19.1342ZM14.9812 25.268C15.8185 26.5206 17.2456 27.3454 18.8653 27.3454H31.3313C33.9097 27.3454 36 25.2551 36 22.6767V12.4729C36 10.2396 34.4318 8.37246 32.3365 7.91269L25.7531 14.4961H30.9294C31.4611 14.4961 31.892 14.9271 31.892 15.4587C31.892 15.9904 31.4611 16.4213 30.9294 16.4213H23.8278L21.1793 19.0698H25.7313C26.2629 19.0698 26.6939 19.5008 26.6939 20.0324C26.6939 20.5641 26.2629 20.9951 25.7313 20.9951H20.0518C19.828 20.9951 19.622 20.9187 19.4586 20.7906L14.9812 25.268ZM21.0381 16.4213L14.2291 23.2303C14.2076 23.0488 14.1966 22.864 14.1966 22.6767V21.5942L19.5258 16.265C19.677 16.3639 19.8577 16.4213 20.0518 16.4213H21.0381ZM22.9633 14.4961L29.6552 7.8042H27.9866L21.2947 14.4961H22.9633Z" fill="#454545"/>
<path d="M11.7176 19.1342L11.6852 19.1698L11.7192 19.2007L11.7516 19.1682L11.7176 19.1342ZM11.2827 18.7392L11.2504 18.7749H11.2504L11.2827 18.7392ZM11.2827 16.6014L11.2504 16.5658L11.2827 16.6014ZM14.1166 14.0278L14.1489 14.0634V14.0634L14.1166 14.0278ZM14.1966 13.9599L14.2265 13.9976L14.2447 13.9831V13.9599H14.1966ZM23.0476 7.8042L23.0816 7.83823L23.1638 7.75607H23.0476V7.8042ZM14.9812 25.268L14.9471 25.234L14.9192 25.2619L14.9411 25.2947L14.9812 25.268ZM32.3365 7.91269L32.3468 7.86567L32.3211 7.86003L32.3024 7.87865L32.3365 7.91269ZM25.7531 14.4961L25.719 14.4621L25.6369 14.5442H25.7531V14.4961ZM23.8278 16.4213V16.3732H23.8079L23.7938 16.3873L23.8278 16.4213ZM21.1793 19.0698L21.1453 19.0358L21.0631 19.118H21.1793V19.0698ZM19.4586 20.7906L19.4882 20.7527L19.4547 20.7264L19.4245 20.7566L19.4586 20.7906ZM21.0381 16.4213L21.0721 16.4554L21.1543 16.3732H21.0381V16.4213ZM14.2291 23.2303L14.1813 23.236L14.1929 23.3346L14.2631 23.2644L14.2291 23.2303ZM14.1966 21.5942L14.1626 21.5602L14.1485 21.5743V21.5942H14.1966ZM19.5258 16.265L19.5521 16.2248L19.5194 16.2034L19.4918 16.231L19.5258 16.265ZM29.6552 7.8042L29.6893 7.83823L29.7714 7.75607H29.6552V7.8042ZM22.9633 14.4961V14.5442H22.9833L22.9974 14.5301L22.9633 14.4961ZM27.9866 7.8042V7.75607H27.9667L27.9526 7.77017L27.9866 7.8042ZM21.2947 14.4961L21.2607 14.4621L21.1785 14.5442H21.2947V14.4961ZM11.75 19.0986L11.3151 18.7036L11.2504 18.7749L11.6852 19.1698L11.75 19.0986ZM11.3151 18.7036C10.7052 18.1498 10.7052 17.1909 11.3151 16.6371L11.2504 16.5658C10.5985 17.1579 10.5985 18.1828 11.2504 18.7749L11.3151 18.7036ZM11.3151 16.6371L14.1489 14.0634L14.0842 13.9921L11.2504 16.5658L11.3151 16.6371ZM14.1489 14.0634C14.1744 14.0403 14.2002 14.0184 14.2265 13.9976L14.1667 13.9221C14.1388 13.9443 14.1113 13.9676 14.0842 13.9921L14.1489 14.0634ZM14.2447 13.9599V12.4729H14.1485V13.9599H14.2447ZM14.2447 12.4729C14.2447 9.92103 16.3134 7.85233 18.8653 7.85233V7.75607C16.2603 7.75607 14.1485 9.86787 14.1485 12.4729H14.2447ZM18.8653 7.85233H23.0476V7.75607H18.8653V7.85233ZM23.0136 7.77017L11.6836 19.1002L11.7516 19.1682L23.0816 7.83823L23.0136 7.77017ZM14.9411 25.2947C15.787 26.5601 17.2288 27.3935 18.8653 27.3935V27.2973C17.2623 27.2973 15.8499 26.481 15.0212 25.2412L14.9411 25.2947ZM18.8653 27.3935H31.3313V27.2973H18.8653V27.3935ZM31.3313 27.3935C33.9363 27.3935 36.0481 25.2817 36.0481 22.6767H35.9518C35.9518 25.2286 33.8831 27.2973 31.3313 27.2973V27.3935ZM36.0481 22.6767V12.4729H35.9518V22.6767H36.0481ZM36.0481 12.4729C36.0481 10.2165 34.4637 8.33019 32.3468 7.86567L32.3262 7.9597C34.3998 8.41473 35.9518 10.2626 35.9518 12.4729H36.0481ZM25.7871 14.5301L32.3705 7.94672L32.3024 7.87865L25.719 14.4621L25.7871 14.5301ZM25.7531 14.5442H30.9294V14.448H25.7531V14.5442ZM30.9294 14.5442C31.4345 14.5442 31.8439 14.9537 31.8439 15.4587H31.9402C31.9402 14.9005 31.4876 14.448 30.9294 14.448V14.5442ZM31.8439 15.4587C31.8439 15.9638 31.4345 16.3732 30.9294 16.3732V16.4695C31.4876 16.4695 31.9402 16.0169 31.9402 15.4587H31.8439ZM30.9294 16.3732H23.8278V16.4695H30.9294V16.3732ZM21.2134 19.1039L23.8619 16.4554L23.7938 16.3873L21.1453 19.0358L21.2134 19.1039ZM21.1793 19.118H25.7313V19.0217H21.1793V19.118ZM25.7313 19.118C26.2363 19.118 26.6457 19.5274 26.6457 20.0324H26.742C26.742 19.4742 26.2895 19.0217 25.7313 19.0217V19.118ZM26.6457 20.0324C26.6457 20.5375 26.2363 20.9469 25.7313 20.9469V21.0432C26.2895 21.0432 26.742 20.5907 26.742 20.0324H26.6457ZM25.7313 20.9469H20.0518V21.0432H25.7313V20.9469ZM20.0518 20.9469C19.8391 20.9469 19.6436 20.8744 19.4882 20.7527L19.4289 20.8285C19.6005 20.963 19.8169 21.0432 20.0518 21.0432V20.9469ZM15.0152 25.302L19.4926 20.8246L19.4245 20.7566L14.9471 25.234L15.0152 25.302ZM21.0041 16.3873L14.1951 23.1963L14.2631 23.2644L21.0721 16.4554L21.0041 16.3873ZM14.1485 22.6767C14.1485 22.8659 14.1596 23.0526 14.1813 23.236L14.2769 23.2247C14.2557 23.045 14.2447 22.8621 14.2447 22.6767H14.1485ZM14.1485 21.5942V22.6767H14.2447V21.5942H14.1485ZM19.4918 16.231L14.1626 21.5602L14.2306 21.6283L19.5598 16.2991L19.4918 16.231ZM20.0518 16.3732C19.8673 16.3732 19.6957 16.3186 19.5521 16.2248L19.4995 16.3053C19.6582 16.4091 19.848 16.4695 20.0518 16.4695V16.3732ZM21.0381 16.3732H20.0518V16.4695H21.0381V16.3732ZM29.6212 7.77017L22.9293 14.4621L22.9974 14.5301L29.6893 7.83823L29.6212 7.77017ZM29.6552 7.75607H27.9866V7.85233H29.6552V7.75607ZM27.9526 7.77017L21.2607 14.4621L21.3288 14.5301L28.0207 7.83823L27.9526 7.77017ZM21.2947 14.5442H22.9633V14.448H21.2947V14.5442Z" fill="#454545" mask="url(#path-3-inside-1_1949_61082)"/>
<path d="M7.16662 28.3815C7.69376 28.9086 8.47666 28.9804 8.91527 28.5418L34.0937 3.3633C34.5323 2.92468 34.4606 2.14178 33.9334 1.61464C33.4063 1.0875 32.6234 1.01573 32.1848 1.45435L7.00633 26.6328C6.56771 27.0714 6.63948 27.8543 7.16662 28.3815Z" fill="#454545"/>
</svg>
