<svg width="36" height="24" viewBox="0 0 36 24" fill="none" xmlns="http://www.w3.org/2000/svg">
<path d="M0.798828 6.81731C0.798828 3.49204 3.49449 0.796387 6.81976 0.796387H18.8616C22.1869 0.796387 24.8826 3.49205 24.8826 6.81732V17.1389C24.8826 20.4642 22.1869 23.1598 18.8616 23.1598H6.81975C3.49449 23.1598 0.798828 20.4642 0.798828 17.1389V6.81731Z" fill="#454545"/>
<path fill-rule="evenodd" clip-rule="evenodd" d="M0 6.81734C0 3.05222 3.05223 0 6.81735 0H18.8592C22.6243 0 25.6766 3.05223 25.6766 6.81735V17.139C25.6766 20.9041 22.6243 23.9563 18.8592 23.9563H6.81735C3.05223 23.9563 0 20.9041 0 17.1389V6.81734ZM6.81735 1.59284C3.93193 1.59284 1.59284 3.93193 1.59284 6.81734V17.1389C1.59284 20.0244 3.93193 22.3635 6.81735 22.3635H18.8592C21.7446 22.3635 24.0837 20.0244 24.0837 17.139V6.81735C24.0837 3.93193 21.7446 1.59284 18.8592 1.59284H6.81735Z" fill="#454545"/>
<path d="M24.8789 9.67429L31.9599 4.7641C33.3288 3.81479 35.2005 4.79454 35.2005 6.46046V17.527C35.2005 19.1869 33.3409 20.168 31.9708 19.2309L24.8789 14.3805V9.67429Z" fill="#454545"/>
<path fill-rule="evenodd" clip-rule="evenodd" d="M34.4075 6.45992C34.4075 5.43672 33.258 4.83495 32.4171 5.41802L25.6788 10.0906V13.9598L32.4239 18.573C33.2654 19.1485 34.4075 18.546 34.4075 17.5265V6.45992ZM31.5095 4.10909C33.4066 2.79354 36.0004 4.15127 36.0004 6.45992V17.5265C36.0004 19.8267 33.4233 21.1863 31.5247 19.8878L24.0859 14.8001V9.25684L31.5095 4.10909Z" fill="#454545"/>
</svg>
