<svg width="36" height="26" viewBox="0 0 36 26" fill="none" xmlns="http://www.w3.org/2000/svg">
<path fill-rule="evenodd" clip-rule="evenodd" d="M17.9999 0.540039C10.4655 0.540039 3.91103 4.72502 0.540106 10.8888C-0.180024 12.2056 -0.180036 13.7973 0.540073 15.1141C3.91095 21.278 10.4655 25.4631 18.0001 25.4631C25.5345 25.4631 32.089 21.2781 35.4599 15.1144C36.18 13.7976 36.18 12.2058 35.4599 10.8891C32.0891 4.72515 25.5345 0.540039 17.9999 0.540039ZM18.0004 8.84751C15.7063 8.84751 13.8465 10.7072 13.8465 13.0014C13.8465 15.2955 15.7063 17.1552 18.0004 17.1552C19.2565 17.1552 20.3825 16.5976 21.1441 15.7164C19.8773 15.4621 18.9231 14.3432 18.9231 13.0015C18.9231 11.6597 19.8774 10.5408 21.1443 10.2865C20.3826 9.40517 19.2566 8.84751 18.0004 8.84751ZM11.0773 13.0014C11.0773 9.17784 14.1769 6.07828 18.0004 6.07828C21.8239 6.07828 24.9235 9.17784 24.9235 13.0014C24.9235 16.8249 21.8239 19.9244 18.0004 19.9244C14.1769 19.9244 11.0773 16.8249 11.0773 13.0014Z" fill="#454545"/>
</svg>
