<svg width="36" height="26" viewBox="0 0 36 26" fill="none" xmlns="http://www.w3.org/2000/svg">
<mask id="path-1-inside-1_1920_19891" fill="white">
<path fill-rule="evenodd" clip-rule="evenodd" d="M18.8633 5.85254C16.2848 5.85254 14.1945 7.94284 14.1945 10.5214V12.0085C14.1675 12.0299 14.1409 12.0524 14.1147 12.0762L11.2808 14.6499C10.6499 15.2229 10.6499 16.2148 11.2808 16.7878L14.1147 19.3615C14.1409 19.3853 14.1675 19.4079 14.1945 19.4293V20.7254C14.1945 23.3039 16.2848 25.3942 18.8633 25.3942H31.3295C33.9081 25.3942 35.9984 23.3039 35.9984 20.7254V10.5214C35.9984 7.94284 33.9081 5.85254 31.3295 5.85254H18.8633ZM19.0864 13.5089C19.0864 12.9772 19.5174 12.5462 20.0491 12.5462H30.9269C31.4586 12.5462 31.8896 12.9772 31.8896 13.5089C31.8896 14.0405 31.4586 14.4715 30.9269 14.4715H20.0491C19.5174 14.4715 19.0864 14.0405 19.0864 13.5089ZM20.0491 17.1187C19.5174 17.1187 19.0864 17.5497 19.0864 18.0813C19.0864 18.613 19.5174 19.044 20.0491 19.044H25.7287C26.2603 19.044 26.6913 18.613 26.6913 18.0813C26.6913 17.5497 26.2603 17.1187 25.7287 17.1187H20.0491Z"/>
</mask>
<path fill-rule="evenodd" clip-rule="evenodd" d="M18.8633 5.85254C16.2848 5.85254 14.1945 7.94284 14.1945 10.5214V12.0085C14.1675 12.0299 14.1409 12.0524 14.1147 12.0762L11.2808 14.6499C10.6499 15.2229 10.6499 16.2148 11.2808 16.7878L14.1147 19.3615C14.1409 19.3853 14.1675 19.4079 14.1945 19.4293V20.7254C14.1945 23.3039 16.2848 25.3942 18.8633 25.3942H31.3295C33.9081 25.3942 35.9984 23.3039 35.9984 20.7254V10.5214C35.9984 7.94284 33.9081 5.85254 31.3295 5.85254H18.8633ZM19.0864 13.5089C19.0864 12.9772 19.5174 12.5462 20.0491 12.5462H30.9269C31.4586 12.5462 31.8896 12.9772 31.8896 13.5089C31.8896 14.0405 31.4586 14.4715 30.9269 14.4715H20.0491C19.5174 14.4715 19.0864 14.0405 19.0864 13.5089ZM20.0491 17.1187C19.5174 17.1187 19.0864 17.5497 19.0864 18.0813C19.0864 18.613 19.5174 19.044 20.0491 19.044H25.7287C26.2603 19.044 26.6913 18.613 26.6913 18.0813C26.6913 17.5497 26.2603 17.1187 25.7287 17.1187H20.0491Z" fill="#454545"/>
<path d="M14.1945 12.0085L14.2244 12.0462L14.2427 12.0317V12.0085H14.1945ZM14.1147 12.0762L14.0823 12.0406L14.0823 12.0406L14.1147 12.0762ZM11.2808 14.6499L11.3132 14.6856L11.2808 14.6499ZM11.2808 16.7878L11.2484 16.8234H11.2484L11.2808 16.7878ZM14.1147 19.3615L14.1471 19.3259H14.1471L14.1147 19.3615ZM14.1945 19.4293H14.2427V19.406L14.2244 19.3915L14.1945 19.4293ZM14.2427 10.5214C14.2427 7.96942 16.3114 5.90067 18.8633 5.90067V5.80441C16.2582 5.80441 14.1464 7.91626 14.1464 10.5214H14.2427ZM14.2427 12.0085V10.5214H14.1464V12.0085H14.2427ZM14.1471 12.1118C14.1724 12.0888 14.1982 12.0669 14.2244 12.0462L14.1646 11.9707C14.1368 11.9928 14.1093 12.0161 14.0823 12.0406L14.1471 12.1118ZM11.3132 14.6856L14.1471 12.1118L14.0823 12.0406L11.2484 14.6143L11.3132 14.6856ZM11.3132 16.7522C10.7033 16.1983 10.7033 15.2395 11.3132 14.6856L11.2484 14.6143C10.5965 15.2064 10.5965 16.2313 11.2484 16.8234L11.3132 16.7522ZM14.1471 19.3259L11.3132 16.7522L11.2484 16.8234L14.0823 19.3971L14.1471 19.3259ZM14.2244 19.3915C14.1982 19.3708 14.1724 19.3489 14.1471 19.3259L14.0823 19.3971C14.1093 19.4216 14.1368 19.4449 14.1646 19.467L14.2244 19.3915ZM14.2427 20.7254V19.4293H14.1464V20.7254H14.2427ZM18.8633 25.346C16.3114 25.346 14.2427 23.2773 14.2427 20.7254H14.1464C14.1464 23.3305 16.2582 25.4423 18.8633 25.4423V25.346ZM31.3295 25.346H18.8633V25.4423H31.3295V25.346ZM35.9502 20.7254C35.9502 23.2773 33.8815 25.346 31.3295 25.346V25.4423C33.9346 25.4423 36.0465 23.3305 36.0465 20.7254H35.9502ZM35.9502 10.5214V20.7254H36.0465V10.5214H35.9502ZM31.3295 5.90067C33.8815 5.90067 35.9502 7.96942 35.9502 10.5214H36.0465C36.0465 7.91625 33.9346 5.80441 31.3295 5.80441V5.90067ZM18.8633 5.90067H31.3295V5.80441H18.8633V5.90067ZM20.0491 12.4981C19.4909 12.4981 19.0383 12.9506 19.0383 13.5089H19.1346C19.1346 13.0038 19.544 12.5944 20.0491 12.5944V12.4981ZM30.9269 12.4981H20.0491V12.5944H30.9269V12.4981ZM31.9377 13.5089C31.9377 12.9506 31.4852 12.4981 30.9269 12.4981V12.5944C31.432 12.5944 31.8415 13.0038 31.8415 13.5089H31.9377ZM30.9269 14.5196C31.4852 14.5196 31.9377 14.0671 31.9377 13.5089H31.8415C31.8415 14.0139 31.432 14.4234 30.9269 14.4234V14.5196ZM20.0491 14.5196H30.9269V14.4234H20.0491V14.5196ZM19.0383 13.5089C19.0383 14.0671 19.4909 14.5196 20.0491 14.5196V14.4234C19.544 14.4234 19.1346 14.0139 19.1346 13.5089H19.0383ZM19.1346 18.0813C19.1346 17.5763 19.544 17.1668 20.0491 17.1668V17.0706C19.4909 17.0706 19.0383 17.5231 19.0383 18.0813H19.1346ZM20.0491 18.9959C19.544 18.9959 19.1346 18.5864 19.1346 18.0813H19.0383C19.0383 18.6396 19.4909 19.0921 20.0491 19.0921V18.9959ZM25.7287 18.9959H20.0491V19.0921H25.7287V18.9959ZM26.6432 18.0813C26.6432 18.5864 26.2337 18.9959 25.7287 18.9959V19.0921C26.2869 19.0921 26.7395 18.6396 26.7395 18.0813H26.6432ZM25.7287 17.1668C26.2337 17.1668 26.6432 17.5763 26.6432 18.0813H26.7395C26.7395 17.5231 26.2869 17.0706 25.7287 17.0706V17.1668ZM20.0491 17.1668H25.7287V17.0706H20.0491V17.1668Z" fill="#454545" mask="url(#path-1-inside-1_1920_19891)"/>
<path fill-rule="evenodd" clip-rule="evenodd" d="M11.5478 8.28381C9.3194 7.10286 6.75525 10.0462 8.80694 12.2416C9.15751 12.6167 9.13761 13.205 8.76248 13.5556C8.38735 13.9061 7.79905 13.8862 7.44847 13.5111C4.03156 9.85486 8.24857 4.43105 12.4184 6.64091C12.8721 6.88134 13.045 7.44402 12.8046 7.89769C12.5641 8.35136 12.0014 8.52423 11.5478 8.28381Z" fill="#454545"/>
<path fill-rule="evenodd" clip-rule="evenodd" d="M10.0166 2.67999C4.00874 1.24381 -0.391387 7.49055 3.08271 12.8353C3.36253 13.2658 3.24038 13.8416 2.80989 14.1214C2.3794 14.4012 1.80358 14.2791 1.52375 13.8486C-2.82233 7.16235 2.73047 -0.973486 10.4489 0.871601C10.9483 0.990975 11.2563 1.49257 11.137 1.99194C11.0176 2.49132 10.516 2.79937 10.0166 2.67999Z" fill="#454545"/>
</svg>
