<svg width="36" height="36" viewBox="0 0 36 36" fill="none" xmlns="http://www.w3.org/2000/svg">
<path fill-rule="evenodd" clip-rule="evenodd" d="M1.99134 25.0409C-2.35267 18.0116 1.17841 9.35055 5.26258 5.26637C12.2838 -1.75481 23.6673 -1.75481 30.6885 5.26637C37.7097 12.2876 37.7097 23.6711 30.6885 30.6923C26.4304 34.9504 17.9272 38.3238 10.9131 33.9649C10.5247 33.7235 10.3304 33.6028 10.1822 33.5438C9.89966 33.4312 9.6827 33.3982 9.37946 33.4214C9.22043 33.4336 9.04077 33.4802 8.68158 33.5733L8.68136 33.5734L8.6813 33.5734C6.41997 34.1595 5.28911 34.4526 4.47453 34.2868C3.06073 33.9991 1.9558 32.8942 1.66808 31.4804C1.5023 30.6658 1.79536 29.5351 2.38149 27.2737C2.47463 26.9144 2.52121 26.7346 2.53347 26.5761C2.5569 26.2728 2.52449 26.0584 2.41252 25.7756C2.35395 25.6277 2.23308 25.4321 1.99134 25.0409ZM17.979 7.19124C15.4966 7.19124 13.4843 9.2036 13.4843 11.686V17.3043C13.4843 19.7867 15.4966 21.7991 17.979 21.7991C20.4614 21.7991 22.4737 19.7867 22.4737 17.3043V11.686C22.4737 9.2036 20.4614 7.19124 17.979 7.19124ZM8.98966 17.0239C9.45511 17.0239 9.83242 17.4013 9.83242 17.8667C9.83242 22.366 13.4798 26.0134 17.9791 26.0134C22.4784 26.0134 26.1258 22.366 26.1258 17.8667C26.1258 17.4013 26.5031 17.0239 26.9685 17.0239C27.434 17.0239 27.8113 17.4013 27.8113 17.8667C27.8113 23.0129 23.8576 27.2357 18.8221 27.6633V29.6656C18.8221 30.1311 18.4448 30.5084 17.9793 30.5084C17.5139 30.5084 17.1366 30.1311 17.1366 29.6656V27.6633C12.1008 27.2359 8.14691 23.0131 8.14691 17.8667C8.14691 17.4013 8.52422 17.0239 8.98966 17.0239Z" fill="#BFBFBF"/>
</svg>
